<svg width="1116" height="93" viewBox="0 0 1116 93" fill="none" xmlns="http://www.w3.org/2000/svg"><g clip-path="url(#clip0)"><path fill="#D1D1D1" d="M0 6h1116v1H0z"/><path fill="#EAEAE7" d="M249 44h59.722v14H249z"/><path d="M231.835 52.753c0 .896-.255 1.582-.765 2.057-.504.468-1.218.703-2.144.703-.92 0-1.658-.308-2.215-.923-.55-.621-.826-1.465-.826-2.531v-.967c0-1.031.278-1.855.835-2.47.562-.621 1.298-.932 2.206-.932.937 0 1.658.24 2.162.721.504.48.756 1.157.756 2.03h-1.283c0-.58-.141-.993-.422-1.239-.276-.252-.68-.378-1.213-.378-.551 0-.985.202-1.301.607-.316.404-.475.966-.475 1.687v.993c0 .703.159 1.257.475 1.661.316.405.75.607 1.3.607.54 0 .944-.123 1.214-.37.275-.245.413-.664.413-1.256h1.283zm-8.024-1.16c0 1.008.234 1.942.703 2.803a5.256 5.256 0 0 0 1.907 2.013c.808.486 1.682.73 2.619.73.938 0 1.808-.244 2.61-.73a5.255 5.255 0 0 0 1.908-2.013 5.771 5.771 0 0 0 .703-2.803c0-.996-.232-1.92-.695-2.769a5.187 5.187 0 0 0-1.907-2.004 4.918 4.918 0 0 0-2.619-.738c-.937 0-1.81.243-2.62.73a5.17 5.17 0 0 0-1.915 2.003 5.744 5.744 0 0 0-.694 2.778zm-1.011 0c0-1.184.272-2.282.817-3.296a6.163 6.163 0 0 1 2.277-2.39 5.99 5.99 0 0 1 3.146-.88c1.125 0 2.17.293 3.138.88a6.1 6.1 0 0 1 2.267 2.39 6.794 6.794 0 0 1 .827 3.296 6.893 6.893 0 0 1-.791 3.243 6.284 6.284 0 0 1-2.25 2.434 5.86 5.86 0 0 1-3.191.915 5.936 5.936 0 0 1-3.19-.906 6.307 6.307 0 0 1-2.25-2.426 6.867 6.867 0 0 1-.8-3.26z" fill="#9F9E97"/><path fill="#EAEAE7" d="M332.611 44h59.722v14h-59.722zm83.611 0h59.722v14h-59.722zm83.611 0h59.722v14h-59.722zm83.611 0h59.722v14h-59.722zm83.612 0h59.722v14h-59.722zm83.611 0h59.722v14h-59.722zm83.611 0H894v14h-59.722z"/></g><defs><clipPath id="clip0"><path fill="#fff" transform="translate(0 -1087)" d="M0 0h1440v1198H0z"/></clipPath></defs></svg>