<?xml version="1.0" encoding="utf-8"?>
<!-- Generator: Adobe Illustrator 23.0.1, SVG Export Plug-In . SVG Version: 6.00 Build 0)  -->
<svg version="1.1" xmlns="http://www.w3.org/2000/svg" xmlns:xlink="http://www.w3.org/1999/xlink" x="0px" y="0px"
	 viewBox="0 0 1116 193" style="enable-background:new 0 0 1116 193;" xml:space="preserve">
<style type="text/css">
	.st0{clip-path:url(#SVGID_2_);}
	.st1{fill:#D1D1D1;}
	.st2{fill:#EAEAE7;}
	.st3{fill:#555555;fill-opacity:0.87;}
	.st4{fill:#6A6A6A;}
</style>
<g id="Ebene_1">
	<g>
		<defs>
			<rect id="SVGID_1_" y="-93" width="1440" height="1198"/>
		</defs>
		<clipPath id="SVGID_2_">
			<use xlink:href="#SVGID_1_"  style="overflow:visible;"/>
		</clipPath>
		<g class="st0">
			<path class="st1" d="M0,144h1116v1H0V144z M0,185h1116v1H0V185z"/>
			<path class="st2" d="M179,157h62v14h-62V157z M265.9,157h62v14h-62V157z M352.7,157h62v14h-62V157z M439.6,157h62v14h-62V157z
				 M526.5,157h62v14h-62V157z M613.3,157h62v14h-62V157z M700.2,157h62v14h-62V157z M787.1,157h62v14h-62V157z M874,157h62v14h-62
				L874,157z"/>
		</g>
	</g>
	<path id="living_1_" class="st3" d="M384.2,85.2c0,1.1,0.1,1.9,0.3,2.4c0.2,0.5,0.5,0.8,1,1c0.5,0.2,1.3,0.3,2.4,0.3h2.2
		c3.3,0,6.3-0.9,8.7-2.6c2.4-1.8,4.1-4.2,4.9-7.3c0-0.1,0.1-0.1,0.3-0.1c0.1,0,0.2,0,0.3,0.1c0.1,0,0.2,0.1,0.2,0.1
		c-0.4,4.2-0.6,7.8-0.6,10.6c0,0.3-0.1,0.6-0.3,0.8c-0.1,0.1-0.4,0.2-0.7,0.2h-30.4c-0.1,0-0.1-0.1-0.1-0.4c0-0.3,0-0.4,0.1-0.4
		c1.4,0,2.4-0.1,3-0.3c0.7-0.2,1.1-0.6,1.3-1.2c0.3-0.7,0.4-1.6,0.4-2.9V55.6c0-1.3-0.1-2.2-0.4-2.8c-0.2-0.6-0.7-1-1.3-1.2
		c-0.7-0.3-1.6-0.4-3-0.4c-0.1,0-0.1-0.1-0.1-0.4c0-0.3,0-0.4,0.1-0.4l3.3,0.1c2,0.1,3.6,0.1,4.9,0.1c1.3,0,2.9,0,4.9-0.1l3.3-0.1
		c0.1,0,0.2,0.1,0.2,0.4c0,0.3-0.1,0.4-0.2,0.4c-1.3,0-2.3,0.1-3,0.4c-0.7,0.2-1.1,0.7-1.3,1.3c-0.2,0.6-0.3,1.5-0.3,2.8L384.2,85.2
		L384.2,85.2z M408.1,90.7c-0.1,0-0.2-0.1-0.2-0.4s0.1-0.4,0.2-0.4c1.3,0,2.2-0.3,2.7-0.9c0.5-0.7,0.7-1.8,0.7-3.5V73.9
		c0-1.5-0.1-2.5-0.5-3.2c-0.3-0.7-0.8-1-1.5-1c-0.5,0-1.4,0.2-2.4,0.7h-0.1c-0.2,0-0.3-0.1-0.4-0.3c-0.1-0.3-0.1-0.4,0.1-0.5
		l9.7-4.5l0.2-0.1c0.2,0,0.4,0.1,0.7,0.3c0.2,0.2,0.3,0.4,0.3,0.6v1.4c-0.1,1.7-0.1,3.8-0.1,6.3v11.7c0,1.7,0.2,2.9,0.7,3.6
		c0.5,0.6,1.4,0.9,2.8,0.9c0.1,0,0.2,0.1,0.2,0.4c0,0.3-0.1,0.4-0.2,0.4c-1.1,0-2,0-2.6-0.1l-3.9-0.1l-3.8,0.1
		C410.1,90.7,409.2,90.8,408.1,90.7L408.1,90.7z M414.3,58.8c-1.3,0-2.2-0.4-2.9-1c-0.7-0.7-1-1.7-1-2.9c0-1.1,0.4-2,1-2.6
		c0.7-0.7,1.7-1,2.9-1c1.2,0,2.1,0.3,2.8,1c0.7,0.7,1,1.5,1,2.7c0,1.3-0.3,2.2-1,2.9C416.4,58.4,415.5,58.8,414.3,58.8L414.3,58.8z
		 M451.7,65.8c0.1,0,0.1,0.1,0.1,0.4c0,0.3,0,0.4-0.1,0.4c-1.3,0-2.4,0.5-3.3,1.4c-0.9,1-1.8,2.4-2.7,4.4l-7.9,18.3
		c0,0.2-0.3,0.3-0.7,0.3c-0.4,0-0.6-0.1-0.7-0.3l-9.9-19.5c-0.9-1.9-1.7-3.1-2.4-3.7c-0.7-0.6-1.5-0.9-2.5-0.9
		c-0.1,0-0.2-0.1-0.2-0.4s0.1-0.4,0.2-0.4c0.8,0,1.4,0,1.9,0.1l4.3,0.1l5-0.1c0.7,0,1.7-0.1,3-0.1c0.1,0,0.2,0.1,0.2,0.4
		s-0.1,0.4-0.2,0.4c-2.5,0-3.7,0.5-3.7,1.5c0,0.3,0.1,0.6,0.3,1l7.2,13.5l4.2-10.3c0.4-0.9,0.5-1.7,0.5-2.3c0-1.1-0.4-1.9-1.1-2.5
		c-0.7-0.6-1.7-0.9-3-0.9c-0.1,0-0.1-0.1-0.1-0.4c0-0.3,0-0.4,0.1-0.4c1.2,0,2,0,2.6,0.1l3.9,0.1l2.6-0.1
		C449.9,65.8,450.7,65.8,451.7,65.8L451.7,65.8z M453.4,90.7c-0.1,0-0.2-0.1-0.2-0.4s0.1-0.4,0.2-0.4c1.3,0,2.2-0.3,2.7-0.9
		c0.5-0.7,0.7-1.8,0.7-3.5V73.9c0-1.5-0.2-2.5-0.5-3.2c-0.3-0.7-0.8-1-1.5-1c-0.6,0-1.4,0.2-2.4,0.7h-0.1c-0.2,0-0.3-0.1-0.4-0.3
		c-0.1-0.3-0.1-0.4,0.1-0.5l9.7-4.5l0.2-0.1c0.2,0,0.4,0.1,0.7,0.3c0.2,0.2,0.3,0.4,0.3,0.6v1.4c-0.1,1.7-0.1,3.8-0.1,6.3v11.7
		c0,1.7,0.2,2.9,0.7,3.6c0.5,0.6,1.4,0.9,2.8,0.9c0.1,0,0.2,0.1,0.2,0.4c0,0.3-0.1,0.4-0.2,0.4c-1.1,0-2,0-2.6-0.1l-3.9-0.1
		l-3.8,0.1C455.3,90.7,454.4,90.8,453.4,90.7L453.4,90.7z M459.6,58.8c-1.3,0-2.2-0.4-2.9-1c-0.7-0.7-1-1.7-1-2.9c0-1.1,0.4-2,1-2.6
		c0.7-0.7,1.7-1,2.9-1c1.2,0,2.1,0.3,2.8,1c0.7,0.7,1,1.5,1,2.7c0,1.3-0.3,2.2-1,2.9C461.7,58.4,460.8,58.8,459.6,58.8L459.6,58.8z
		 M500.6,89.9c0.1,0,0.2,0.1,0.2,0.4s-0.1,0.4-0.2,0.4c-1.1,0-2,0-2.6-0.1l-3.9-0.1l-3.8,0.1c-0.7,0-1.6,0.1-2.7,0.1
		c-0.1,0-0.2-0.1-0.2-0.4s0.1-0.4,0.2-0.4c1.3,0,2.2-0.3,2.7-0.9c0.5-0.7,0.7-1.8,0.7-3.5v-9.3c0-2.3-0.4-4-1.3-5.2
		c-0.8-1.1-2.1-1.7-3.9-1.7c-1,0-2.1,0.2-3.2,0.7c-1.1,0.4-2,1-2.8,1.7v13.7c0,1.7,0.2,2.9,0.7,3.5c0.5,0.6,1.4,0.9,2.8,0.9
		c0.1,0,0.2,0.1,0.2,0.4s0,0.4-0.1,0.4c-1.1,0-2,0-2.6-0.1l-3.9-0.1l-3.8,0.1c-0.7,0-1.5,0.1-2.6,0.1c-0.1,0-0.2-0.1-0.2-0.4
		s0.1-0.4,0.2-0.4c1.3,0,2.2-0.3,2.7-0.9c0.5-0.7,0.7-1.8,0.7-3.5V73.3c0-1.3-0.2-2.3-0.5-2.9c-0.3-0.7-0.8-1-1.5-1
		c-0.7,0-1.8,0.3-3.1,0.9h-0.1c-0.1,0-0.2-0.1-0.3-0.3c-0.1-0.2,0-0.4,0.1-0.4l9-4.4c0.3-0.1,0.4-0.1,0.5-0.1c0.5,0,0.9,0.5,1.4,1.4
		c0.4,0.9,0.7,2.1,0.8,3.7c3-3.5,6.2-5.3,9.8-5.3c2.3,0,4.1,0.8,5.5,2.3c1.4,1.5,2.1,3.4,2.1,5.8v12.4c0,1.7,0.2,2.9,0.7,3.6
		C498.3,89.6,499.2,89.9,500.6,89.9L500.6,89.9z M516.4,87.8c2.5,0.4,4.5,0.9,6.1,1.3c1.5,0.4,2.8,1.2,3.9,2.2
		c1.1,1,1.7,2.5,1.7,4.4c0,2.3-0.8,4.5-2.3,6.5c-1.5,2-3.5,3.6-6,4.8c-2.5,1.2-5.2,1.8-8.1,1.8c-3.2,0-5.8-0.7-7.8-2.1s-3-3.2-3-5.4
		c0-1.5,0.5-3,1.4-4.5s2.7-3.2,5.3-5.1c-1.3-0.4-2.3-1-3-1.7c-0.7-0.7-1-1.7-1-3c0-1.1,0.4-2.2,1.2-3.3c0.9-1.2,2.2-2.2,3.9-3.2
		c-1.9-0.7-3.3-1.6-4.4-3c-1-1.3-1.5-2.8-1.5-4.3c0-1.7,0.6-3.2,1.7-4.4c1.1-1.2,2.5-2.1,4.3-2.7c1.7-0.7,3.4-1,5.2-1
		c2.9,0,5.3,0.7,7.2,2.1c1.2-0.8,2.3-1.4,3.4-1.7c1.1-0.4,2.3-0.6,3.6-0.6c0.3,0,0.5,0.6,0.5,1.8c0,0.6-0.1,1.3-0.3,2
		c-0.2,0.7-0.3,1-0.5,0.9c-1.8-0.7-3.4-1.1-4.8-1.1h-0.5c1.1,1.3,1.7,2.8,1.7,4.5c0,1.6-0.6,3.1-1.7,4.3c-1.1,1.2-2.5,2.1-4.2,2.8
		c-1.7,0.7-3.5,1-5.3,1c-1.2,0-2.3-0.1-3.3-0.4c-0.9,0.7-1.3,1.6-1.3,2.6c0,1,0.4,1.7,1,2.2c0.7,0.5,1.6,0.9,2.6,1.2
		C513,87.2,514.5,87.5,516.4,87.8L516.4,87.8z M511.7,66.6c-1.8,0-2.7,1.7-2.7,5.1c0,2.2,0.5,4.2,1.6,5.9c1.1,1.7,2.4,2.6,4.1,2.6
		c0.8,0,1.5-0.4,2.1-1.3c0.7-0.9,1-2.2,1-4.1c0-2.3-0.6-4.3-1.8-5.9C514.8,67.4,513.3,66.6,511.7,66.6L511.7,66.6z M515.1,106.8
		c2.2,0,4-0.7,5.4-2c1.4-1.3,2.1-3,2.1-5.2c0-1.6-0.5-2.9-1.4-3.8c-0.9-0.9-2-1.5-3.3-1.9c-1.3-0.4-3.1-0.7-5.4-1l-3.5-0.6
		c-1.2,1.4-1.8,3.4-1.8,6.1c0,2.7,0.7,4.8,2.2,6.3C510.8,106.1,512.7,106.8,515.1,106.8C515.1,106.8,515.1,106.8,515.1,106.8z"/>
	<path id="times_1_" class="st3" d="M609,51.9c-5.1,0-8.8,3.3-11,10c0,0.1-0.2,0.2-0.4,0.2c-0.2,0-0.3-0.1-0.3-0.3
		c0.2-1.7,0.4-3.9,0.6-6.6c0.2-2.7,0.3-4.8,0.3-6.2c0-0.2,0.1-0.3,0.3-0.3c0.3,0,0.4,0.1,0.4,0.3c0,0.9,1.2,1.4,3.7,1.4
		c3.7,0.1,8,0.2,12.9,0.2c2.5,0,5.2,0,8.1-0.1l4.4-0.1c1.6,0,2.8-0.1,3.5-0.3c0.8-0.2,1.3-0.7,1.5-1.3c0-0.2,0.2-0.3,0.4-0.3
		c0.3,0,0.4,0.1,0.4,0.3c-0.1,1.3-0.3,3.3-0.5,6.2c-0.1,2.8-0.2,5.1-0.2,6.8c0,0.1-0.1,0.2-0.3,0.2c-0.2,0-0.4-0.1-0.4-0.2
		c-0.7-3.3-1.8-5.8-3.6-7.4c-1.8-1.7-3.9-2.5-6.5-2.5c-1.3,0-2.1,0.3-2.5,0.8c-0.4,0.5-0.6,1.5-0.6,3v29.7c0,1.3,0.1,2.3,0.4,2.9
		c0.3,0.6,0.8,1,1.5,1.2c0.7,0.2,1.9,0.3,3.5,0.3c0.1,0,0.2,0.1,0.2,0.4s-0.1,0.4-0.2,0.4c-1.5,0-2.8,0-3.7-0.1l-5.4-0.1l-5.2,0.1
		c-0.9,0-2.1,0.1-3.7,0.1c-0.1,0-0.2-0.1-0.2-0.4s0.1-0.4,0.2-0.4c1.5,0,2.7-0.1,3.4-0.3c0.8-0.2,1.3-0.6,1.5-1.2
		c0.3-0.7,0.5-1.6,0.5-2.9V55.6c0-1.5-0.2-2.4-0.6-3C610.9,52.1,610.1,51.9,609,51.9L609,51.9z M636.9,90.7c-0.1,0-0.2-0.1-0.2-0.4
		s0.1-0.4,0.2-0.4c1.3,0,2.2-0.3,2.7-0.9c0.5-0.7,0.7-1.8,0.7-3.5V73.9c0-1.5-0.1-2.5-0.5-3.2c-0.3-0.7-0.8-1-1.5-1
		c-0.5,0-1.4,0.2-2.4,0.7h-0.1c-0.2,0-0.3-0.1-0.4-0.3c-0.1-0.3-0.1-0.4,0.1-0.5l9.7-4.5l0.2-0.1c0.2,0,0.4,0.1,0.7,0.3
		c0.2,0.2,0.3,0.4,0.3,0.6v1.4c-0.1,1.7-0.1,3.8-0.1,6.3v11.7c0,1.7,0.2,2.9,0.7,3.6c0.5,0.6,1.4,0.9,2.8,0.9c0.1,0,0.2,0.1,0.2,0.4
		c0,0.3-0.1,0.4-0.2,0.4c-1.1,0-2,0-2.6-0.1l-3.9-0.1l-3.8,0.1C638.9,90.7,638,90.8,636.9,90.7L636.9,90.7z M643.1,58.8
		c-1.3,0-2.2-0.4-2.9-1c-0.7-0.7-1-1.7-1-2.9c0-1.1,0.4-2,1-2.6c0.7-0.7,1.7-1,2.9-1s2.1,0.3,2.8,1c0.7,0.7,1,1.5,1,2.7
		c0,1.3-0.3,2.2-1,2.9C645.2,58.4,644.3,58.8,643.1,58.8L643.1,58.8z M700.2,89.9c0.2,0,0.3,0.1,0.3,0.4s-0.1,0.4-0.3,0.4
		c-1.1,0-2,0-2.6-0.1l-3.9-0.1l-3.8,0.1c-0.7,0-1.6,0.1-2.7,0.1c-0.1,0-0.2-0.1-0.2-0.4s0.1-0.4,0.2-0.4c1.3,0,2.2-0.3,2.7-0.9
		c0.5-0.7,0.8-1.8,0.8-3.5v-9.3c0-2.3-0.4-4-1.2-5.2c-0.8-1.1-2-1.7-3.6-1.7c-1.1,0-2.2,0.2-3.3,0.7c-1.1,0.5-2,1.1-2.8,1.9v13.5
		c0,1.7,0.2,2.9,0.7,3.5c0.5,0.6,1.4,0.9,2.8,0.9c0.2,0,0.3,0.1,0.3,0.4s-0.1,0.4-0.3,0.4c-1.1,0-2,0-2.6-0.1l-3.9-0.1l-3.7,0.1
		c-0.7,0-1.6,0.1-2.7,0.1c-0.1,0-0.2-0.1-0.2-0.4s0.1-0.4,0.2-0.4c1.3,0,2.2-0.3,2.7-0.9c0.5-0.7,0.8-1.8,0.8-3.5v-9.3
		c0-2.3-0.4-4-1.2-5.2c-0.8-1.1-2-1.7-3.6-1.7c-1,0-2.1,0.2-3.1,0.7c-1,0.4-1.9,1-2.6,1.7v13.8c0,1.7,0.2,2.9,0.7,3.5
		c0.5,0.6,1.4,0.9,2.8,0.9c0.1,0,0.2,0.1,0.2,0.4s-0.1,0.4-0.2,0.4c-1.1,0-2,0-2.6-0.1l-3.9-0.1l-3.8,0.1c-0.7,0-1.5,0.1-2.6,0.1
		c-0.1,0-0.2-0.1-0.2-0.4s0.1-0.4,0.2-0.4c1.3,0,2.2-0.3,2.7-0.9c0.5-0.7,0.7-1.8,0.7-3.5V73.3c0-1.3-0.2-2.3-0.5-2.9
		c-0.3-0.7-0.8-1-1.5-1c-0.7,0-1.8,0.3-3.1,0.9H652c-0.1,0-0.2-0.1-0.3-0.3c0-0.2,0-0.4,0.1-0.4l8.9-4.4c0.3-0.1,0.4-0.1,0.5-0.1
		c0.5,0,0.9,0.5,1.4,1.4c0.4,0.9,0.7,2.1,0.8,3.7c2.9-3.5,6.1-5.2,9.4-5.2c2,0,3.6,0.5,4.8,1.5s1.9,2.4,2.2,4.2
		c3-3.8,6.3-5.7,9.9-5.7c2.3,0,4.1,0.7,5.3,2c1.3,1.3,1.9,3.3,1.9,6.1v12.4c0,1.7,0.2,2.9,0.7,3.5C697.9,89.5,698.9,89.8,700.2,89.9
		L700.2,89.9z M724.6,86.4c0.1,0,0.2,0.1,0.3,0.3c0.1,0.2,0.2,0.3,0.1,0.4c-1.6,1.5-3.2,2.7-4.8,3.3c-1.6,0.7-3.4,1-5.3,1
		c-2.7,0-5-0.6-7-1.7c-2-1.2-3.5-2.7-4.5-4.6c-1-1.9-1.5-4-1.5-6.2c0-2.5,0.7-4.8,1.9-6.9c1.3-2.1,3.1-3.8,5.3-5
		c2.2-1.3,4.7-1.9,7.5-1.9c2.7,0,4.7,0.6,6.1,1.7c1.4,1.1,2.1,2.7,2.1,4.6c0,1.3-0.2,1.9-0.7,1.9h-3.9l-11.6,0.1
		c-0.1,0.8-0.2,1.7-0.2,2.7c0,3.7,0.9,6.6,2.6,8.8c1.8,2.1,4.2,3.2,7.2,3.2c1.1,0,2.2-0.2,3.3-0.5s2.2-0.8,3.2-1.4L724.6,86.4
		L724.6,86.4z M714,66.5c-1.3,0-2.4,0.5-3.3,1.5c-0.9,1-1.6,2.4-2.1,4.2l9.2-0.2C717.6,68.4,716.4,66.5,714,66.5L714,66.5z
		 M734.2,68.9c0,1.3,0.4,2.3,1.3,3.2c0.9,0.9,2.2,1.8,3.9,2.8c1.6,1,2.8,1.7,3.6,2.3c0.8,0.5,1.5,1.3,2.2,2.3c0.7,1,1,2.1,1,3.5
		c0,1.5-0.4,2.8-1.1,4.1c-0.7,1.3-1.8,2.3-3.3,3.2c-1.5,0.8-3.2,1.2-5.2,1.2c-2.4,0-4.6-0.6-6.7-1.7c-0.3-0.3-0.4-0.5-0.4-0.8
		l-0.1-6.4c0-0.1,0.1-0.2,0.3-0.2c0.3-0.1,0.4,0,0.5,0.1c0.7,2.1,1.8,4,3.4,5.5c1.6,1.5,3.2,2.3,4.8,2.3c0.9,0,1.6-0.3,2.1-0.8
		c0.6-0.6,0.8-1.4,0.8-2.4c0-1.6-0.5-2.8-1.4-3.8c-0.9-1-2.2-1.9-4-2.9c-1.5-0.8-2.6-1.5-3.4-2s-1.5-1.3-2.1-2.2
		c-0.6-1-0.9-2.1-0.9-3.5c0-2.5,0.9-4.4,2.7-5.5c1.8-1.2,4-1.8,6.6-1.8c1,0,1.9,0.1,2.6,0.2c0.8,0.1,1.7,0.4,2.7,0.8
		c0.4,0.1,0.6,0.4,0.6,0.7c0,1.1,0,1.9-0.1,2.5l-0.1,3.2c0,0.1-0.1,0.2-0.4,0.2c-0.3,0-0.4-0.1-0.4-0.2c0-0.8-0.4-1.7-1-2.6
		c-0.7-1-1.6-1.8-2.7-2.5c-1.1-0.7-2.2-1-3.3-1C735.2,66.3,734.3,67.2,734.2,68.9L734.2,68.9z"/>
	<g>
		<g>
			<path class="st4" d="M567,96.4c4.8-0.4,4.7-1.5,3.7-2.3c-1.3-1.1-4.2-2.1-9-3.8c-8.1-2.8-18.2-6.3-19.8-10.3
				c-0.2-0.5-0.4-1-0.5-1.5c-0.1-0.4-0.3-0.9-0.4-1.3c1.5,4,7.9,6.8,21.5,11.6c6.4,2.3,16.1,5.7,7.3,7.4
				C568.8,96.2,567.8,96.3,567,96.4"/>
			<g>
				<path class="st4" d="M547.5,51.9c2.2-2,5.6-3.4,13.9-5.9c3.9-1.2,4.9-1.5,4.9-1.8c-0.1-0.1-0.2-0.1-0.6-0.1c0,0,0.1,0,0.1,0
					c-0.2,0.2-0.3,0.2-3.1,0.9c-7.4,1.9-10.7,3.2-13,4.9C548.9,50.5,548.1,51.1,547.5,51.9"/>
				<path class="st4" d="M543.1,57.8c2.1-3.2,7.2-5.3,17.8-8.9c5.3-1.8,13.4-4.6,4.7-4.8c0.8,0,3,0.1,2,1c-0.7,0.6-2.7,1.2-6.5,2.5
					c-8,2.6-14.3,4.9-16.5,7.8C544.1,56,543.6,56.9,543.1,57.8"/>
				<path class="st4" d="M541.2,62c-0.3,0.9-0.5,1.8-0.7,2.8c1.5-4.5,9.7-7.7,23.2-12.5c5.7-2,16.2-5.7,6.6-7.8l-0.4-0.1
					c-0.8-0.1-1.8-0.3-2.6-0.3c5.8,0.5,5.2,1.9,4.4,2.7c-1.4,1.2-4.7,2.4-9.3,4c-11.6,4.1-19.3,7-21,11
					C541.3,61.9,541.3,62,541.2,62"/>
				<path class="st4" d="M539.9,70.2c0,0.8,0,1.6,0.1,2.3c0.1-5.1,8.2-8.8,24.9-14.9c11.8-4.2,18-7.5,12.4-10.7
					c-0.8-0.4-1.9-0.9-2.7-1.2c3.2,1.4,5.5,3.5-5.4,7.8c-7.3,2.9-15,4.9-22,8.7c-5.1,2.7-7,4.6-7.3,7.1
					C539.9,69.7,539.9,70,539.9,70.2"/>
				<path class="st4" d="M541.2,78.4c0.2,0.5,0.4,1,0.5,1.5c-0.9-3.2,1.3-7.2,23.1-15.3c14.9-5.5,22.3-9.3,18.4-13.4
					c-0.7-0.6-1.5-1.4-2.2-1.9c4.5,3.8-2.4,7.4-16.6,12.5c-12.9,4.7-24.6,9.8-23.7,15.2C541,77.5,541.1,78,541.2,78.4"/>
				<path class="st4" d="M589.3,80.5c0.8-3.1-1.5-7.1-23.3-15.2c-14.6-5.4-22.3-9.3-18.5-13.5c0.7-0.7,1.4-1.4,2.2-2
					c-4.3,3.9,2.7,7.5,17.2,12.8c12.2,4.4,24.5,9.7,23.5,15C590,78.7,589.7,79.6,589.3,80.5"/>
				<path class="st4" d="M585.5,86.8c2.4-3.8-2.7-7.4-19.5-13.8c-18.7-7-24.9-11.2-22.9-15.3c0.5-0.9,1-1.7,1.5-2.5
					c-2.6,4.5,5.1,8.5,20.3,14.3c14.2,5.5,24.9,10,22.3,14.9C586.7,85.3,586.1,86.1,585.5,86.8"/>
				<path class="st4" d="M580.1,91.8c4.5-3.6-2.4-7.2-15.9-12.1c-14.7-5.3-24.4-9.9-23.6-15c0.2-0.9,0.4-1.9,0.7-2.8
					c0-0.1,0-0.1,0.1-0.2c-1.1,5.1,8.6,9.8,23.6,15.3c14.1,5.2,21.5,8.9,17.5,12.8C581.7,90.7,580.9,91.3,580.1,91.8"/>
				<path class="st4" d="M574.1,94.9l-0.5,0.2c3-1.1,5.3-2.8-2.4-6.3c-7.8-3.5-16.3-5.5-23.9-9.5c-5.9-3.1-6.9-5.2-7.1-6.7
					c-0.1-0.8-0.1-1.5-0.1-2.3c0-0.3,0-0.5,0-0.8c0.4,5,8.4,8.7,25.1,14.6c12.9,4.6,16.2,7.5,11.2,10
					C575.5,94.4,574.8,94.7,574.1,94.9"/>
				<path class="st4" d="M570.1,44.5c-1-0.2-2-0.3-3.1-0.4l0.2,0c0.8,0.1,1.8,0.2,2.6,0.3l0.4,0.1L570.1,44.5"/>
			</g>
		</g>
	</g>
</g>
<g id="Ebene_2">
</g>
</svg>
