<?xml version="1.0" encoding="UTF-8" standalone="no"?>
<svg width="512px" height="512px" viewBox="0 0 512 512" version="1.1" xmlns="http://www.w3.org/2000/svg" xmlns:xlink="http://www.w3.org/1999/xlink">
    <!-- Generator: Sketch 3.8.3 (29802) - http://www.bohemiancoding.com/sketch -->
    <title>Slice 1</title>
    <desc>Created with Sketch.</desc>
    <defs></defs>
    <g id="Page-1" stroke="none" stroke-width="1" fill="none" fill-rule="evenodd">
        <g id="iframe-embed" fill="#2F2F2F">
            <path d="M256,0 C114.609,0 0,114.609 0,256 C0,397.392 114.609,512 256,512 C397.392,512 512,397.392 512,256 C512,114.609 397.392,0 256,0 L256,0 Z M256,472 C136.703,472 40,375.298 40,256 C40,136.703 136.703,40 256,40 C375.298,40 472,136.703 472,256 C472,375.298 375.298,472 256,472 L256,472 Z" id="Shape"></path>
            <path d="M0,256 C0,397.3849 114.6151,512 256,512 C397.3849,512 512,397.3849 512,256 C512,114.6151 397.3849,-4.2632564e-14 256,0 C114.6151,3.7895613e-14 0,114.6151 0,256 Z M211.9375,123.21875 L228.875,123.21875 L228.875,187.875 L161.90625,187.875 L161.90625,171.53125 L211.9375,123.21875 L211.9375,123.21875 Z M251.59375,123.21875 L350.09375,123.21875 L350.09375,388.78125 L161.90625,388.78125 L161.90625,209.8125 L251.59375,209.8125 L251.59375,123.21875 L251.59375,123.21875 Z" id="Shape"></path>
        </g>
    </g>
</svg>