<?xml version="1.0" encoding="UTF-8"?>
<svg width="255px" height="452px" viewBox="0 0 255 452" version="1.1" xmlns="http://www.w3.org/2000/svg" xmlns:xlink="http://www.w3.org/1999/xlink">
    <!-- Generator: Sketch 40.2 (33826) - http://www.bohemiancoding.com/sketch -->
    <title>Group 4</title>
    <desc>Created with Sketch.</desc>
    <defs></defs>
    <g id="Page-1" stroke="none" stroke-width="1" fill="none" fill-rule="evenodd">
        <g id="Group-3" transform="translate(-28.000000, -100.000000)" fill="#9F9E97">
            <g id="latest-news">
                <g id="Group-4" transform="translate(28.000000, 100.000000)">
                    <g id="lates-news-item">
                        <rect id="Rectangle-2" x="0" y="72" width="221" height="20"></rect>
                        <rect id="Rectangle-2" x="0" y="48" width="252" height="20"></rect>
                        <rect id="Rectangle-2" x="0" y="24" width="243" height="20"></rect>
                        <rect id="Rectangle-2" x="0" y="0" width="255" height="20"></rect>
                    </g>
                    <g id="lates-news-item" transform="translate(0.000000, 120.000000)">
                        <rect id="Rectangle-2" x="0" y="72" width="221" height="20"></rect>
                        <rect id="Rectangle-2" x="0" y="48" width="252" height="20"></rect>
                        <rect id="Rectangle-2" x="0" y="24" width="243" height="20"></rect>
                        <rect id="Rectangle-2" x="0" y="0" width="255" height="20"></rect>
                    </g>
                    <g id="lates-news-item" transform="translate(0.000000, 240.000000)">
                        <rect id="Rectangle-2" x="0" y="72" width="221" height="20"></rect>
                        <rect id="Rectangle-2" x="0" y="48" width="252" height="20"></rect>
                        <rect id="Rectangle-2" x="0" y="24" width="243" height="20"></rect>
                        <rect id="Rectangle-2" x="0" y="0" width="255" height="20"></rect>
                    </g>
                    <g id="lates-news-item" transform="translate(0.000000, 360.000000)">
                        <rect id="Rectangle-2" x="0" y="72" width="221" height="20"></rect>
                        <rect id="Rectangle-2" x="0" y="48" width="252" height="20"></rect>
                        <rect id="Rectangle-2" x="0" y="24" width="243" height="20"></rect>
                        <rect id="Rectangle-2" x="0" y="0" width="255" height="20"></rect>
                    </g>
                </g>
            </g>
        </g>
    </g>
</svg>