<?xml version="1.0" encoding="utf-8"?>
<!-- Generator: Adobe Illustrator 23.0.1, SVG Export Plug-In . SVG Version: 6.00 Build 0)  -->
<svg version="1.1" id="logo" xmlns="http://www.w3.org/2000/svg" xmlns:xlink="http://www.w3.org/1999/xlink" x="0px" y="0px"
	 viewBox="0 0 212.19 44.02" style="enable-background:new 0 0 212.19 44.02;" xml:space="preserve">
<style type="text/css">
	.st0{fill-opacity:0.87;}
</style>
<path id="living_1_" class="st0" d="M6.69,30.59c0,0.63,0.05,1.1,0.15,1.39c0.1,0.27,0.28,0.45,0.55,0.55
	c0.3,0.1,0.76,0.15,1.39,0.15h1.24c1.9,0,3.55-0.5,4.94-1.5c1.39-1.03,2.32-2.4,2.78-4.13c0-0.05,0.05-0.08,0.15-0.08
	c0.05,0,0.1,0.02,0.15,0.07c0.08,0.02,0.11,0.05,0.11,0.07c-0.22,2.41-0.33,4.43-0.33,6.03c0,0.19-0.05,0.34-0.15,0.44
	c-0.07,0.08-0.21,0.11-0.4,0.11H-0.01c-0.05,0-0.07-0.08-0.07-0.22c0-0.15,0.02-0.22,0.07-0.22c0.78,0,1.34-0.06,1.68-0.19
	c0.37-0.12,0.61-0.35,0.73-0.7c0.15-0.37,0.22-0.91,0.22-1.64V13.79c0-0.73-0.07-1.27-0.21-1.61c-0.12-0.34-0.37-0.57-0.73-0.7
	c-0.37-0.15-0.92-0.22-1.68-0.22c-0.05,0-0.07-0.07-0.07-0.22c0-0.15,0.02-0.22,0.08-0.22l1.86,0.03c1.12,0.05,2.05,0.07,2.78,0.07
	s1.66-0.02,2.78-0.08l1.87-0.04c0.07,0,0.11,0.07,0.11,0.22s-0.04,0.22-0.11,0.22c-0.75,0-1.32,0.07-1.68,0.22
	C7.24,11.6,7,11.85,6.88,12.21c-0.12,0.34-0.18,0.88-0.18,1.61v16.76L6.69,30.59z M20.26,33.7c-0.07,0-0.11-0.07-0.11-0.22
	s0.04-0.22,0.11-0.22c0.76,0,1.27-0.17,1.54-0.51c0.27-0.37,0.4-1.04,0.4-2.01v-6.55c0-0.83-0.08-1.43-0.26-1.79
	c-0.17-0.37-0.45-0.55-0.84-0.55c-0.31,0-0.77,0.13-1.35,0.4h-0.03c-0.09,0-0.17-0.06-0.21-0.18c-0.05-0.15-0.03-0.23,0.03-0.26
	l5.53-2.56l0.11-0.03c0.12,0,0.24,0.06,0.37,0.19c0.12,0.12,0.19,0.23,0.19,0.33v0.81c-0.05,0.98-0.07,2.17-0.07,3.59v6.62
	c0,0.98,0.13,1.65,0.4,2.02c0.3,0.34,0.82,0.51,1.57,0.51c0.08,0,0.11,0.08,0.11,0.22c0,0.15-0.03,0.22-0.11,0.22
	c-0.63,0-1.13-0.01-1.5-0.03l-2.2-0.03l-2.15,0.04c-0.37,0.03-0.87,0.04-1.5,0.04L20.26,33.7z M23.77,15.59
	c-0.71,0-1.26-0.2-1.65-0.59c-0.39-0.39-0.59-0.94-0.59-1.65c0-0.63,0.2-1.13,0.59-1.5c0.41-0.39,0.96-0.59,1.65-0.59
	c0.68,0,1.21,0.18,1.57,0.55c0.37,0.37,0.55,0.88,0.55,1.53c0,0.71-0.18,1.25-0.55,1.64C24.98,15.38,24.45,15.58,23.77,15.59
	L23.77,15.59z M45.05,19.58c0.05,0,0.07,0.07,0.07,0.22s-0.02,0.22-0.07,0.22c-0.71,0-1.34,0.27-1.9,0.8
	c-0.53,0.54-1.05,1.37-1.53,2.49l-4.5,10.39c-0.02,0.12-0.16,0.18-0.4,0.18c-0.2,0-0.33-0.06-0.4-0.18l-5.6-11.09
	c-0.51-1.07-0.96-1.77-1.35-2.08c-0.39-0.34-0.87-0.51-1.43-0.51c-0.07,0-0.11-0.07-0.11-0.22c0-0.15,0.04-0.22,0.11-0.22
	c0.44,0,0.8,0.01,1.1,0.04l2.45,0.04l2.82-0.04c0.41-0.02,0.99-0.04,1.72-0.04c0.07,0,0.11,0.07,0.11,0.22
	c0,0.15-0.04,0.22-0.11,0.22c-1.41,0-2.12,0.28-2.12,0.84c0,0.15,0.06,0.34,0.18,0.58l4.1,7.68l2.41-5.85
	c0.2-0.51,0.3-0.95,0.3-1.32c0-0.61-0.21-1.09-0.62-1.43c-0.42-0.34-0.99-0.51-1.72-0.51c-0.05,0-0.07-0.07-0.07-0.22
	s0.02-0.22,0.07-0.22c0.66,0,1.16,0.01,1.5,0.04l2.2,0.04l1.46-0.04C44,19.59,44.45,19.58,45.05,19.58L45.05,19.58z M45.98,33.7
	c-0.07,0-0.11-0.07-0.11-0.22s0.04-0.22,0.11-0.22c0.75,0,1.27-0.17,1.54-0.51c0.27-0.37,0.4-1.04,0.4-2.01v-6.55
	c0-0.83-0.09-1.43-0.26-1.79c-0.17-0.37-0.45-0.55-0.84-0.55c-0.32,0-0.77,0.13-1.35,0.4h-0.04c-0.1,0-0.17-0.06-0.22-0.18
	c-0.05-0.15-0.04-0.23,0.04-0.26l5.52-2.56l0.11-0.03c0.12,0,0.24,0.06,0.37,0.19c0.12,0.12,0.18,0.23,0.18,0.33v0.81
	c-0.05,0.98-0.08,2.17-0.08,3.59v6.62c0,0.98,0.13,1.65,0.4,2.02c0.29,0.34,0.81,0.51,1.57,0.51c0.07,0,0.1,0.08,0.1,0.22
	c0,0.15-0.03,0.22-0.11,0.22c-0.64,0-1.14-0.01-1.5-0.03l-2.2-0.03l-2.16,0.04c-0.37,0.03-0.87,0.04-1.5,0.04L45.98,33.7z
	 M49.5,15.59c-0.71,0-1.26-0.2-1.65-0.59c-0.39-0.39-0.59-0.94-0.59-1.65c0-0.63,0.2-1.13,0.59-1.5c0.41-0.39,0.96-0.59,1.65-0.59
	c0.68,0,1.21,0.18,1.57,0.55c0.37,0.37,0.55,0.88,0.55,1.53c0,0.71-0.18,1.25-0.55,1.64C50.71,15.38,50.18,15.58,49.5,15.59
	L49.5,15.59z M72.79,33.26c0.07,0,0.1,0.07,0.1,0.22s-0.04,0.22-0.11,0.22c-0.63,0-1.13-0.01-1.5-0.04l-2.2-0.04l-2.13,0.04
	c-0.39,0.02-0.91,0.04-1.54,0.04c-0.08,0-0.11-0.07-0.11-0.22s0.03-0.22,0.11-0.22c0.75,0,1.27-0.17,1.53-0.51
	c0.27-0.37,0.4-1.04,0.4-2.01v-5.27c0-1.32-0.24-2.29-0.73-2.93c-0.46-0.63-1.21-0.95-2.24-0.95c-0.59,0-1.2,0.12-1.83,0.37
	c-0.61,0.24-1.15,0.57-1.61,0.99v7.79c0,0.98,0.13,1.65,0.4,2.01c0.29,0.34,0.81,0.51,1.57,0.51c0.07,0,0.11,0.07,0.11,0.22
	S63,33.7,62.93,33.7c-0.63,0-1.14-0.01-1.5-0.04l-2.2-0.04l-2.16,0.04c-0.37,0.02-0.87,0.04-1.5,0.04c-0.08,0-0.11-0.07-0.11-0.22
	s0.03-0.22,0.11-0.22c0.75,0,1.27-0.17,1.53-0.51c0.27-0.37,0.4-1.04,0.4-2.01v-6.88c0-0.76-0.1-1.3-0.3-1.65
	c-0.17-0.37-0.45-0.55-0.84-0.55c-0.41,0-1,0.17-1.75,0.51h-0.07c-0.07,0-0.13-0.06-0.18-0.18c-0.03-0.12-0.01-0.2,0.03-0.22
	l5.09-2.49c0.15-0.05,0.23-0.07,0.26-0.07c0.27,0,0.52,0.27,0.77,0.8c0.24,0.51,0.39,1.22,0.44,2.12c1.68-2,3.54-3,5.56-3
	c1.32,0,2.35,0.43,3.11,1.28c0.78,0.83,1.17,1.93,1.17,3.29v7.03c0,0.98,0.13,1.65,0.4,2.02c0.29,0.34,0.82,0.51,1.57,0.51
	L72.79,33.26z M81.79,32.09c1.44,0.24,2.58,0.49,3.44,0.73c0.85,0.24,1.59,0.66,2.2,1.24c0.63,0.59,0.95,1.41,0.95,2.49
	c0,1.32-0.43,2.55-1.28,3.7c-0.83,1.15-1.96,2.06-3.4,2.74c-1.42,0.68-2.95,1.02-4.61,1.02c-1.81,0-3.28-0.39-4.43-1.17
	c-1.15-0.78-1.72-1.79-1.72-3.04c0-0.83,0.27-1.68,0.8-2.56c0.53-0.88,1.53-1.84,3-2.89c-0.73-0.22-1.31-0.54-1.72-0.95
	c-0.39-0.41-0.59-0.98-0.59-1.68c0-0.61,0.23-1.23,0.69-1.87c0.49-0.66,1.23-1.27,2.23-1.83c-1.07-0.37-1.9-0.93-2.49-1.68
	c-0.59-0.76-0.88-1.57-0.88-2.45c0-0.98,0.32-1.81,0.95-2.49c0.63-0.68,1.44-1.2,2.42-1.54c0.98-0.37,1.95-0.55,2.93-0.55
	c1.63,0,2.99,0.41,4.06,1.21c0.66-0.44,1.31-0.77,1.94-0.99c0.63-0.22,1.32-0.33,2.05-0.33c0.19,0,0.29,0.34,0.29,1.03
	c0,0.34-0.05,0.72-0.15,1.14c-0.1,0.42-0.19,0.59-0.26,0.51c-1.03-0.41-1.94-0.62-2.75-0.62h-0.3c0.63,0.76,0.95,1.61,0.95,2.56
	c0,0.93-0.32,1.75-0.95,2.45c-0.61,0.69-1.41,1.21-2.38,1.57c-0.98,0.37-1.97,0.55-3,0.55c-0.66,0-1.28-0.07-1.87-0.22
	c-0.49,0.39-0.73,0.89-0.73,1.5c0,0.54,0.2,0.95,0.59,1.25c0.42,0.3,0.92,0.52,1.5,0.66c0.58,0.15,1.41,0.32,2.49,0.52L81.79,32.09z
	 M79.08,20.02c-1.03,0-1.54,0.96-1.54,2.89c0,1.27,0.3,2.39,0.91,3.37c0.61,0.98,1.39,1.46,2.34,1.46c0.46,0,0.87-0.24,1.21-0.73
	c0.37-0.49,0.55-1.25,0.55-2.3c0-1.32-0.34-2.43-1.03-3.33c-0.69-0.9-1.5-1.35-2.45-1.35L79.08,20.02z M81.02,42.85
	c1.27,0,2.29-0.38,3.07-1.13c0.8-0.73,1.21-1.72,1.21-2.96c0-0.93-0.27-1.65-0.81-2.16c-0.52-0.49-1.15-0.84-1.9-1.06
	c-0.73-0.2-1.75-0.39-3.04-0.59l-1.97-0.33c-0.69,0.8-1.03,1.95-1.03,3.44c0,1.54,0.41,2.72,1.24,3.55c0.82,0.83,1.9,1.24,3.22,1.24
	H81.02z"/>
<path id="times_1_" class="st0" d="M134.36,11.68c-2.9,0-4.99,1.89-6.26,5.67c-0.02,0.07-0.1,0.1-0.22,0.1
	c-0.12-0.02-0.19-0.08-0.19-0.15c0.1-0.98,0.2-2.24,0.33-3.77c0.12-1.56,0.18-2.74,0.18-3.51c0-0.12,0.06-0.19,0.18-0.19
	c0.15,0,0.21,0.06,0.21,0.18c0,0.53,0.7,0.8,2.08,0.8c2.1,0.08,4.55,0.11,7.35,0.11c1.44,0,2.97-0.02,4.58-0.08l2.49-0.03
	c0.92,0,1.6-0.06,2.01-0.19c0.44-0.12,0.72-0.37,0.84-0.73c0.02-0.1,0.09-0.15,0.21-0.15c0.15,0,0.22,0.05,0.22,0.15
	c-0.08,0.73-0.16,1.9-0.26,3.51c-0.08,1.61-0.11,2.9-0.11,3.88c0,0.07-0.06,0.11-0.19,0.11s-0.2-0.04-0.22-0.11
	c-0.37-1.88-1.05-3.28-2.05-4.21c-1-0.95-2.23-1.43-3.7-1.43c-0.71,0-1.18,0.16-1.43,0.48c-0.22,0.29-0.33,0.87-0.33,1.72v16.87
	c0,0.75,0.08,1.3,0.22,1.64c0.15,0.34,0.43,0.57,0.84,0.69c0.42,0.12,1.07,0.18,1.97,0.18c0.08,0,0.11,0.07,0.11,0.22
	c0,0.15-0.03,0.21-0.11,0.21c-0.88,0-1.57-0.01-2.08-0.03l-3.04-0.04l-2.96,0.04c-0.51,0.02-1.22,0.03-2.12,0.03
	c-0.07,0-0.11-0.08-0.11-0.22s0.04-0.22,0.11-0.22c0.88,0,1.53-0.06,1.94-0.18c0.44-0.12,0.73-0.35,0.88-0.7
	c0.17-0.37,0.26-0.91,0.26-1.64V13.79c0-0.83-0.11-1.39-0.33-1.68c-0.22-0.29-0.67-0.44-1.35-0.44L134.36,11.68z M150.18,33.7
	c-0.07,0-0.11-0.07-0.11-0.22s0.04-0.22,0.11-0.22c0.75,0,1.27-0.17,1.54-0.51c0.27-0.37,0.4-1.04,0.4-2.01v-6.55
	c0-0.83-0.08-1.43-0.26-1.79c-0.17-0.37-0.45-0.55-0.84-0.55c-0.31,0-0.77,0.13-1.35,0.4h-0.03c-0.1,0-0.17-0.06-0.22-0.18
	c-0.05-0.15-0.03-0.23,0.04-0.26l5.52-2.56l0.11-0.03c0.12,0,0.24,0.06,0.37,0.19c0.12,0.12,0.18,0.23,0.18,0.33v0.81
	c-0.05,0.98-0.08,2.17-0.08,3.59v6.62c0,0.98,0.13,1.65,0.4,2.02c0.29,0.34,0.81,0.51,1.57,0.51c0.07,0,0.1,0.08,0.1,0.22
	c0,0.15-0.04,0.22-0.11,0.22c-0.63,0-1.14-0.01-1.5-0.03l-2.2-0.03l-2.16,0.04c-0.37,0.03-0.87,0.04-1.5,0.04L150.18,33.7z
	 M153.69,15.59c-0.71,0-1.26-0.2-1.65-0.59c-0.39-0.39-0.59-0.94-0.59-1.65c0-0.63,0.2-1.13,0.59-1.5c0.41-0.39,0.96-0.59,1.65-0.59
	s1.21,0.18,1.57,0.55c0.37,0.37,0.55,0.88,0.55,1.53c0,0.71-0.19,1.25-0.55,1.64C154.89,15.38,154.36,15.58,153.69,15.59
	L153.69,15.59z M186.13,33.26c0.1,0,0.15,0.07,0.15,0.22s-0.05,0.22-0.15,0.22c-0.63,0-1.13-0.01-1.5-0.04l-2.2-0.04l-2.13,0.04
	c-0.39,0.02-0.91,0.04-1.54,0.04c-0.07,0-0.11-0.07-0.11-0.22s0.04-0.22,0.11-0.22c0.75,0,1.27-0.17,1.54-0.51
	c0.3-0.37,0.44-1.04,0.44-2.01v-5.27c0-1.32-0.23-2.29-0.69-2.93c-0.44-0.63-1.12-0.95-2.05-0.95c-0.63,0-1.25,0.13-1.86,0.4
	c-0.61,0.27-1.13,0.63-1.57,1.1v7.65c0,0.98,0.13,1.65,0.41,2.01c0.3,0.34,0.82,0.51,1.57,0.51c0.1,0,0.15,0.07,0.15,0.22
	s-0.05,0.22-0.15,0.22c-0.63,0-1.13-0.01-1.5-0.04l-2.2-0.04l-2.12,0.04c-0.39,0.02-0.9,0.04-1.53,0.04c-0.08,0-0.11-0.07-0.11-0.22
	s0.03-0.22,0.11-0.22c0.75,0,1.27-0.17,1.53-0.51c0.29-0.37,0.44-1.04,0.44-2.01v-5.27c0-1.32-0.23-2.29-0.7-2.93
	c-0.44-0.63-1.12-0.95-2.05-0.95c-0.59,0-1.17,0.12-1.75,0.37c-0.56,0.22-1.06,0.54-1.5,0.95v7.83c0,0.98,0.13,1.65,0.4,2.01
	c0.29,0.34,0.82,0.51,1.57,0.51c0.07,0,0.11,0.07,0.11,0.22s-0.04,0.22-0.11,0.22c-0.63,0-1.13-0.01-1.5-0.04l-2.2-0.04l-2.16,0.04
	c-0.37,0.02-0.87,0.04-1.5,0.04c-0.08,0-0.11-0.07-0.11-0.22s0.03-0.22,0.11-0.22c0.75,0,1.27-0.17,1.53-0.51
	c0.27-0.37,0.4-1.04,0.4-2.01v-6.88c0-0.76-0.1-1.3-0.29-1.65c-0.17-0.37-0.45-0.55-0.84-0.55c-0.41,0-1,0.17-1.76,0.51h-0.07
	c-0.08,0-0.13-0.06-0.19-0.18c-0.02-0.12-0.01-0.2,0.04-0.22l5.08-2.49c0.15-0.05,0.23-0.07,0.26-0.07c0.27,0,0.53,0.27,0.77,0.8
	c0.24,0.51,0.39,1.21,0.44,2.08c1.66-1.97,3.44-2.96,5.34-2.96c1.15,0,2.06,0.28,2.75,0.84c0.69,0.56,1.1,1.36,1.25,2.41
	c1.68-2.17,3.55-3.26,5.6-3.26c1.31,0,2.32,0.38,3,1.13c0.71,0.75,1.06,1.9,1.06,3.44v7.02c0,0.98,0.13,1.64,0.4,2.01
	c0.29,0.34,0.82,0.51,1.57,0.51L186.13,33.26z M200,31.29c0.05,0,0.1,0.05,0.15,0.15c0.08,0.1,0.09,0.17,0.04,0.22
	c-0.9,0.88-1.82,1.51-2.74,1.9s-1.93,0.59-3.03,0.59c-1.53,0-2.86-0.32-3.98-0.95c-1.12-0.66-1.97-1.52-2.56-2.6
	c-0.59-1.1-0.88-2.27-0.88-3.51c0-1.41,0.37-2.72,1.1-3.91c0.73-1.22,1.74-2.17,3-2.85c1.27-0.71,2.68-1.06,4.25-1.06
	c1.52,0,2.67,0.33,3.48,0.99c0.81,0.63,1.21,1.51,1.21,2.63c0,0.71-0.13,1.06-0.4,1.06h-2.24L190.8,24
	c-0.08,0.46-0.11,0.98-0.11,1.53c0,2.1,0.49,3.76,1.46,4.98c1,1.22,2.37,1.83,4.1,1.83c0.61,0,1.24-0.09,1.9-0.26
	c0.66-0.17,1.26-0.43,1.79-0.77l0.08-0.04L200,31.29z M193.96,19.98c-0.73,0-1.36,0.29-1.9,0.88c-0.53,0.59-0.92,1.39-1.17,2.41
	l5.2-0.11c-0.07-2.12-0.78-3.18-2.12-3.18L193.96,19.98z M205.42,21.33c0,0.71,0.24,1.32,0.73,1.83c0.51,0.51,1.24,1.05,2.2,1.61
	c0.93,0.54,1.61,0.96,2.05,1.28c0.46,0.29,0.88,0.72,1.25,1.28c0.37,0.54,0.55,1.2,0.55,1.98c0,0.83-0.2,1.61-0.62,2.34
	c-0.41,0.73-1.03,1.33-1.86,1.79c-0.83,0.44-1.82,0.66-2.96,0.66c-1.34,0-2.61-0.33-3.8-0.99c-0.15-0.15-0.22-0.3-0.22-0.44
	l-0.08-3.62c0-0.08,0.06-0.11,0.19-0.11c0.15-0.03,0.23-0.01,0.26,0.03c0.39,1.22,1.04,2.25,1.94,3.11
	c0.91,0.85,1.82,1.28,2.75,1.28c0.51,0,0.92-0.16,1.21-0.48c0.32-0.32,0.48-0.78,0.48-1.39c0-0.91-0.26-1.61-0.77-2.13
	c-0.51-0.54-1.27-1.09-2.26-1.65c-0.85-0.46-1.5-0.84-1.94-1.13c-0.44-0.29-0.83-0.71-1.17-1.24c-0.34-0.54-0.51-1.2-0.51-1.97
	c0-1.44,0.51-2.49,1.54-3.15c1.03-0.69,2.28-1.03,3.77-1.03c0.56,0,1.06,0.03,1.5,0.11c0.46,0.07,0.98,0.21,1.54,0.44
	c0.22,0.07,0.33,0.2,0.33,0.4c0,0.61-0.01,1.09-0.04,1.42l-0.04,1.83c0,0.07-0.07,0.11-0.22,0.11s-0.22-0.04-0.22-0.11
	c0-0.46-0.2-0.96-0.59-1.5c-0.39-0.56-0.9-1.04-1.54-1.43c-0.61-0.39-1.24-0.59-1.9-0.59c-1,0-1.5,0.48-1.5,1.43L205.42,21.33z"/>
<g>
	<path d="M110.47,36.95c2.74-0.23,2.65-0.85,2.1-1.32c-0.73-0.63-2.39-1.21-5.13-2.16c-4.6-1.6-10.32-3.58-11.26-5.86
		c-0.11-0.28-0.22-0.57-0.31-0.86c-0.08-0.25-0.16-0.5-0.23-0.76c0.88,2.27,4.48,3.86,12.23,6.59c3.65,1.28,9.16,3.22,4.12,4.19
		C111.53,36.83,110.93,36.91,110.47,36.95"/>
	<g>
		<path d="M99.4,11.66c1.26-1.13,3.17-1.94,7.89-3.35c2.23-0.67,2.76-0.84,2.81-1.01c-0.05-0.04-0.09-0.07-0.36-0.08
			c0.02,0,0.04,0.01,0.05,0.01c-0.14,0.09-0.16,0.11-1.77,0.53c-4.19,1.1-6.05,1.8-7.38,2.77C100.2,10.88,99.79,11.26,99.4,11.66"/>
		<path d="M96.91,15.02c1.19-1.79,4.08-3.01,10.13-5.07c3.03-1.03,7.61-2.6,2.69-2.74c0.47,0.02,1.71,0.07,1.12,0.55
			c-0.4,0.32-1.55,0.7-3.7,1.41c-4.54,1.5-8.12,2.77-9.35,4.42C97.47,14.04,97.18,14.52,96.91,15.02"/>
		<path d="M95.87,17.44c-0.17,0.51-0.31,1.03-0.42,1.57c0.84-2.57,5.53-4.4,13.16-7.11c3.21-1.14,9.18-3.26,3.74-4.41l-0.24-0.05
			c-0.45-0.06-1.05-0.15-1.5-0.19c3.31,0.3,2.97,1.1,2.47,1.54c-0.79,0.7-2.66,1.36-5.26,2.27c-6.57,2.31-10.94,3.99-11.93,6.27
			C95.89,17.38,95.88,17.41,95.87,17.44"/>
		<path d="M95.12,22.1c0,0.45,0.02,0.89,0.06,1.32c0.08-2.88,4.63-5.02,14.16-8.45c6.69-2.41,10.21-4.26,7.03-6.06
			c-0.46-0.22-1.07-0.51-1.54-0.7c1.84,0.77,3.15,1.97-3.06,4.44c-4.16,1.65-8.52,2.81-12.49,4.95c-2.89,1.56-3.98,2.62-4.15,4.03
			C95.13,21.79,95.12,21.94,95.12,22.1"/>
		<path d="M95.87,26.75c0.1,0.29,0.2,0.58,0.31,0.86c-0.5-1.8,0.74-4.1,13.12-8.67c8.47-3.13,12.65-5.26,10.46-7.6
			c-0.37-0.33-0.88-0.78-1.27-1.09c2.53,2.17-1.35,4.18-9.41,7.11c-7.31,2.66-13.99,5.55-13.44,8.62
			C95.71,26.25,95.78,26.5,95.87,26.75"/>
		<path d="M123.15,27.93c0.46-1.77-0.83-4.04-13.24-8.64c-8.27-3.07-12.65-5.3-10.52-7.64c0.39-0.4,0.8-0.77,1.24-1.13
			c-2.43,2.22,1.55,4.27,9.75,7.26c6.91,2.52,13.89,5.51,13.34,8.53C123.57,26.88,123.38,27.41,123.15,27.93"/>
		<path d="M120.98,31.52c1.39-2.17-1.51-4.21-11.06-7.81c-10.6-3.99-14.12-6.35-13.01-8.7c0.27-0.49,0.56-0.97,0.88-1.43
			c-1.46,2.54,2.92,4.81,11.5,8.11c8.08,3.1,14.14,5.69,12.67,8.47C121.66,30.64,121.33,31.09,120.98,31.52"/>
		<path d="M117.91,34.35c2.58-2.06-1.37-4.07-9.05-6.85c-8.36-3.02-13.84-5.62-13.42-8.49c0.11-0.53,0.25-1.06,0.42-1.57
			c0.01-0.03,0.02-0.06,0.03-0.09c-0.63,2.9,4.9,5.58,13.41,8.7c7.99,2.93,12.18,5.07,9.93,7.27
			C118.82,33.69,118.37,34.03,117.91,34.35"/>
		<path d="M114.5,36.11l-0.31,0.11c1.68-0.63,3.03-1.6-1.39-3.58c-4.45-2-9.25-3.12-13.59-5.39c-3.34-1.75-3.9-2.96-4.02-3.82
			c-0.04-0.44-0.06-0.88-0.06-1.32c0-0.16,0-0.31,0.01-0.47c0.23,2.82,4.77,4.92,14.23,8.3c7.34,2.62,9.19,4.27,6.36,5.68
			C115.32,35.79,114.91,35.96,114.5,36.11"/>
		<path d="M112.26,7.47c-0.57-0.11-1.15-0.18-1.74-0.23l0.1,0.01c0.45,0.05,1.05,0.12,1.5,0.19l0.24,0.05L112.26,7.47"/>
	</g>
</g>
</svg>
