<?xml version="1.0" encoding="utf-8"?>
<!-- Generator: Adobe Illustrator 23.0.1, SVG Export Plug-In . SVG Version: 6.00 Build 0)  -->
<svg version="1.1" id="logo" xmlns="http://www.w3.org/2000/svg" xmlns:xlink="http://www.w3.org/1999/xlink" x="0px" y="0px"
	 viewBox="0 0 218 44" style="enable-background:new 0 0 218 44;" xml:space="preserve">
<style type="text/css">
	.st0{fill-opacity:0.87;}
</style>
<path id="living_1_" class="st0" d="M42.7,30.6c0,0.6,0.1,1.1,0.2,1.4c0.1,0.3,0.3,0.4,0.5,0.5c0.3,0.1,0.8,0.2,1.4,0.2H46
	c1.9,0,3.5-0.5,4.9-1.5c1.4-1,2.3-2.4,2.8-4.1c0,0,0-0.1,0.1-0.1c0,0,0.1,0,0.2,0.1c0.1,0,0.1,0,0.1,0.1c-0.2,2.4-0.3,4.4-0.3,6
	c0,0.2,0,0.3-0.1,0.4c-0.1,0.1-0.2,0.1-0.4,0.1H36c0,0-0.1-0.1-0.1-0.2c0-0.2,0-0.2,0.1-0.2c0.8,0,1.3-0.1,1.7-0.2
	c0.4-0.1,0.6-0.3,0.7-0.7c0.1-0.4,0.2-0.9,0.2-1.6V13.8c0-0.7-0.1-1.3-0.2-1.6c-0.1-0.3-0.4-0.6-0.7-0.7c-0.4-0.1-0.9-0.2-1.7-0.2
	c0,0-0.1-0.1-0.1-0.2c0-0.1,0-0.2,0.1-0.2l1.9,0c1.1,0.1,2,0.1,2.8,0.1c0.7,0,1.7,0,2.8-0.1l1.9,0c0.1,0,0.1,0.1,0.1,0.2
	s0,0.2-0.1,0.2c-0.8,0-1.3,0.1-1.7,0.2c-0.4,0.1-0.6,0.4-0.7,0.8c-0.1,0.3-0.2,0.9-0.2,1.6L42.7,30.6L42.7,30.6z M56.2,33.7
	c-0.1,0-0.1-0.1-0.1-0.2s0-0.2,0.1-0.2c0.8,0,1.3-0.2,1.5-0.5c0.3-0.4,0.4-1,0.4-2v-6.6c0-0.8-0.1-1.4-0.3-1.8
	c-0.2-0.4-0.5-0.5-0.8-0.5c-0.3,0-0.8,0.1-1.4,0.4h0c-0.1,0-0.2-0.1-0.2-0.2c0-0.1,0-0.2,0-0.3l5.5-2.6l0.1,0c0.1,0,0.2,0.1,0.4,0.2
	c0.1,0.1,0.2,0.2,0.2,0.3v0.8c0,1-0.1,2.2-0.1,3.6v6.6c0,1,0.1,1.6,0.4,2c0.3,0.3,0.8,0.5,1.6,0.5c0.1,0,0.1,0.1,0.1,0.2
	c0,0.2,0,0.2-0.1,0.2c-0.6,0-1.1,0-1.5,0l-2.2,0l-2.1,0C57.4,33.7,56.9,33.8,56.2,33.7L56.2,33.7z M59.7,15.6
	c-0.7,0-1.3-0.2-1.7-0.6s-0.6-0.9-0.6-1.6c0-0.6,0.2-1.1,0.6-1.5c0.4-0.4,1-0.6,1.7-0.6c0.7,0,1.2,0.2,1.6,0.6
	c0.4,0.4,0.5,0.9,0.5,1.5c0,0.7-0.2,1.2-0.5,1.6C60.9,15.4,60.4,15.6,59.7,15.6L59.7,15.6z M81,19.6c0,0,0.1,0.1,0.1,0.2
	s0,0.2-0.1,0.2c-0.7,0-1.3,0.3-1.9,0.8c-0.5,0.5-1.1,1.4-1.5,2.5l-4.5,10.4c0,0.1-0.2,0.2-0.4,0.2c-0.2,0-0.3-0.1-0.4-0.2l-5.6-11.1
	c-0.5-1.1-1-1.8-1.4-2.1c-0.4-0.3-0.9-0.5-1.4-0.5c-0.1,0-0.1-0.1-0.1-0.2s0-0.2,0.1-0.2c0.4,0,0.8,0,1.1,0l2.4,0l2.8,0
	c0.4,0,1,0,1.7,0c0.1,0,0.1,0.1,0.1,0.2s0,0.2-0.1,0.2c-1.4,0-2.1,0.3-2.1,0.8c0,0.1,0.1,0.3,0.2,0.6l4.1,7.7l2.4-5.9
	c0.2-0.5,0.3-1,0.3-1.3c0-0.6-0.2-1.1-0.6-1.4c-0.4-0.3-1-0.5-1.7-0.5c0,0-0.1-0.1-0.1-0.2s0-0.2,0.1-0.2c0.7,0,1.2,0,1.5,0l2.2,0
	l1.5,0C80,19.6,80.4,19.6,81,19.6L81,19.6z M81.9,33.7c-0.1,0-0.1-0.1-0.1-0.2s0-0.2,0.1-0.2c0.8,0,1.3-0.2,1.5-0.5
	c0.3-0.4,0.4-1,0.4-2v-6.6c0-0.8-0.1-1.4-0.3-1.8c-0.2-0.4-0.4-0.5-0.8-0.5c-0.3,0-0.8,0.1-1.3,0.4h0c-0.1,0-0.2-0.1-0.2-0.2
	c-0.1-0.1,0-0.2,0-0.3l5.5-2.6l0.1,0c0.1,0,0.2,0.1,0.4,0.2c0.1,0.1,0.2,0.2,0.2,0.3v0.8c-0.1,1-0.1,2.2-0.1,3.6v6.6
	c0,1,0.1,1.6,0.4,2c0.3,0.3,0.8,0.5,1.6,0.5c0.1,0,0.1,0.1,0.1,0.2c0,0.2,0,0.2-0.1,0.2c-0.6,0-1.1,0-1.5,0l-2.2,0l-2.2,0
	C83,33.7,82.5,33.8,81.9,33.7L81.9,33.7z M85.5,15.6c-0.7,0-1.3-0.2-1.7-0.6c-0.4-0.4-0.6-0.9-0.6-1.6c0-0.6,0.2-1.1,0.6-1.5
	c0.4-0.4,1-0.6,1.7-0.6c0.7,0,1.2,0.2,1.6,0.6c0.4,0.4,0.6,0.9,0.6,1.5c0,0.7-0.2,1.2-0.6,1.6C86.7,15.4,86.1,15.6,85.5,15.6
	L85.5,15.6z M108.8,33.3c0.1,0,0.1,0.1,0.1,0.2s0,0.2-0.1,0.2c-0.6,0-1.1,0-1.5,0l-2.2,0l-2.1,0c-0.4,0-0.9,0-1.5,0
	c-0.1,0-0.1-0.1-0.1-0.2s0-0.2,0.1-0.2c0.8,0,1.3-0.2,1.5-0.5c0.3-0.4,0.4-1,0.4-2v-5.3c0-1.3-0.2-2.3-0.7-2.9c-0.5-0.6-1.2-1-2.2-1
	c-0.6,0-1.2,0.1-1.8,0.4c-0.6,0.2-1.2,0.6-1.6,1v7.8c0,1,0.1,1.6,0.4,2c0.3,0.3,0.8,0.5,1.6,0.5c0.1,0,0.1,0.1,0.1,0.2
	s0,0.2-0.1,0.2c-0.6,0-1.1,0-1.5,0l-2.2,0l-2.2,0c-0.4,0-0.9,0-1.5,0c-0.1,0-0.1-0.1-0.1-0.2s0-0.2,0.1-0.2c0.8,0,1.3-0.2,1.5-0.5
	c0.3-0.4,0.4-1,0.4-2v-6.9c0-0.8-0.1-1.3-0.3-1.6c-0.2-0.4-0.5-0.5-0.8-0.5c-0.4,0-1,0.2-1.8,0.5h-0.1c-0.1,0-0.1-0.1-0.2-0.2
	c0-0.1,0-0.2,0-0.2l5.1-2.5c0.2,0,0.2-0.1,0.3-0.1c0.3,0,0.5,0.3,0.8,0.8c0.2,0.5,0.4,1.2,0.4,2.1c1.7-2,3.5-3,5.6-3
	c1.3,0,2.3,0.4,3.1,1.3c0.8,0.8,1.2,1.9,1.2,3.3v7c0,1,0.1,1.6,0.4,2C107.4,33.1,108,33.3,108.8,33.3L108.8,33.3z M117.8,32.1
	c1.4,0.2,2.6,0.5,3.4,0.7c0.8,0.2,1.6,0.7,2.2,1.2c0.6,0.6,0.9,1.4,0.9,2.5c0,1.3-0.4,2.5-1.3,3.7c-0.8,1.2-2,2.1-3.4,2.7
	c-1.4,0.7-2.9,1-4.6,1c-1.8,0-3.3-0.4-4.4-1.2s-1.7-1.8-1.7-3c0-0.8,0.3-1.7,0.8-2.6c0.5-0.9,1.5-1.8,3-2.9c-0.7-0.2-1.3-0.5-1.7-1
	c-0.4-0.4-0.6-1-0.6-1.7c0-0.6,0.2-1.2,0.7-1.9c0.5-0.7,1.2-1.3,2.2-1.8c-1.1-0.4-1.9-0.9-2.5-1.7c-0.6-0.8-0.9-1.6-0.9-2.5
	c0-1,0.3-1.8,0.9-2.5s1.4-1.2,2.4-1.5c1-0.4,1.9-0.5,2.9-0.5c1.6,0,3,0.4,4.1,1.2c0.7-0.4,1.3-0.8,1.9-1c0.6-0.2,1.3-0.3,2.1-0.3
	c0.2,0,0.3,0.3,0.3,1c0,0.3-0.1,0.7-0.2,1.1s-0.2,0.6-0.3,0.5c-1-0.4-1.9-0.6-2.8-0.6h-0.3c0.6,0.8,0.9,1.6,0.9,2.6
	c0,0.9-0.3,1.8-0.9,2.5c-0.6,0.7-1.4,1.2-2.4,1.6c-1,0.4-2,0.5-3,0.5c-0.7,0-1.3-0.1-1.9-0.2c-0.5,0.4-0.7,0.9-0.7,1.5
	c0,0.5,0.2,1,0.6,1.2c0.4,0.3,0.9,0.5,1.5,0.7C115.8,31.7,116.6,31.9,117.8,32.1L117.8,32.1z M115,20c-1,0-1.5,1-1.5,2.9
	c0,1.3,0.3,2.4,0.9,3.4s1.4,1.5,2.3,1.5c0.5,0,0.9-0.2,1.2-0.7c0.4-0.5,0.6-1.2,0.6-2.3c0-1.3-0.3-2.4-1-3.3S116,20,115,20L115,20z
	 M117,42.9c1.3,0,2.3-0.4,3.1-1.1c0.8-0.7,1.2-1.7,1.2-3c0-0.9-0.3-1.7-0.8-2.2c-0.5-0.5-1.2-0.8-1.9-1.1c-0.7-0.2-1.8-0.4-3-0.6
	l-2-0.3c-0.7,0.8-1,2-1,3.4c0,1.5,0.4,2.7,1.2,3.5C114.6,42.4,115.7,42.9,117,42.9C117,42.9,117,42.9,117,42.9z"/>
<path id="times_1_" class="st0" d="M139.4,11.7c-2.9,0-5,1.9-6.3,5.7c0,0.1-0.1,0.1-0.2,0.1c-0.1,0-0.2-0.1-0.2-0.1
	c0.1-1,0.2-2.2,0.3-3.8c0.1-1.6,0.2-2.7,0.2-3.5c0-0.1,0.1-0.2,0.2-0.2c0.1,0,0.2,0.1,0.2,0.2c0,0.5,0.7,0.8,2.1,0.8
	c2.1,0.1,4.6,0.1,7.4,0.1c1.4,0,3,0,4.6-0.1l2.5,0c0.9,0,1.6-0.1,2-0.2c0.4-0.1,0.7-0.4,0.8-0.7c0-0.1,0.1-0.1,0.2-0.1
	c0.1,0,0.2,0.1,0.2,0.1c-0.1,0.7-0.2,1.9-0.3,3.5c-0.1,1.6-0.1,2.9-0.1,3.9c0,0.1-0.1,0.1-0.2,0.1s-0.2,0-0.2-0.1
	c-0.4-1.9-1.1-3.3-2.1-4.2c-1-0.9-2.2-1.4-3.7-1.4c-0.7,0-1.2,0.2-1.4,0.5c-0.2,0.3-0.3,0.9-0.3,1.7v16.9c0,0.8,0.1,1.3,0.2,1.6
	c0.1,0.3,0.4,0.6,0.8,0.7c0.4,0.1,1.1,0.2,2,0.2c0.1,0,0.1,0.1,0.1,0.2s0,0.2-0.1,0.2c-0.9,0-1.6,0-2.1,0l-3,0l-3,0
	c-0.5,0-1.2,0-2.1,0c-0.1,0-0.1-0.1-0.1-0.2s0-0.2,0.1-0.2c0.9,0,1.5-0.1,1.9-0.2c0.4-0.1,0.7-0.3,0.9-0.7c0.2-0.4,0.3-0.9,0.3-1.6
	V13.8c0-0.8-0.1-1.4-0.3-1.7S140,11.7,139.4,11.7L139.4,11.7z M155.2,33.7c-0.1,0-0.1-0.1-0.1-0.2s0-0.2,0.1-0.2
	c0.8,0,1.3-0.2,1.5-0.5c0.3-0.4,0.4-1,0.4-2v-6.6c0-0.8-0.1-1.4-0.3-1.8c-0.2-0.4-0.4-0.5-0.8-0.5c-0.3,0-0.8,0.1-1.4,0.4h0
	c-0.1,0-0.2-0.1-0.2-0.2c-0.1-0.1,0-0.2,0-0.3l5.5-2.6l0.1,0c0.1,0,0.2,0.1,0.4,0.2c0.1,0.1,0.2,0.2,0.2,0.3v0.8
	c-0.1,1-0.1,2.2-0.1,3.6v6.6c0,1,0.1,1.6,0.4,2c0.3,0.3,0.8,0.5,1.6,0.5c0.1,0,0.1,0.1,0.1,0.2c0,0.2,0,0.2-0.1,0.2
	c-0.6,0-1.1,0-1.5,0l-2.2,0l-2.2,0C156.3,33.7,155.8,33.8,155.2,33.7L155.2,33.7z M158.7,15.6c-0.7,0-1.3-0.2-1.6-0.6
	s-0.6-0.9-0.6-1.6c0-0.6,0.2-1.1,0.6-1.5c0.4-0.4,1-0.6,1.6-0.6s1.2,0.2,1.6,0.6c0.4,0.4,0.6,0.9,0.6,1.5c0,0.7-0.2,1.2-0.6,1.6
	C159.9,15.4,159.4,15.6,158.7,15.6L158.7,15.6z M191.1,33.3c0.1,0,0.1,0.1,0.1,0.2s-0.1,0.2-0.1,0.2c-0.6,0-1.1,0-1.5,0l-2.2,0
	l-2.1,0c-0.4,0-0.9,0-1.5,0c-0.1,0-0.1-0.1-0.1-0.2s0-0.2,0.1-0.2c0.8,0,1.3-0.2,1.5-0.5c0.3-0.4,0.4-1,0.4-2v-5.3
	c0-1.3-0.2-2.3-0.7-2.9c-0.4-0.6-1.1-1-2.1-1c-0.6,0-1.2,0.1-1.9,0.4s-1.1,0.6-1.6,1.1v7.6c0,1,0.1,1.6,0.4,2
	c0.3,0.3,0.8,0.5,1.6,0.5c0.1,0,0.1,0.1,0.1,0.2s-0.1,0.2-0.1,0.2c-0.6,0-1.1,0-1.5,0l-2.2,0l-2.1,0c-0.4,0-0.9,0-1.5,0
	c-0.1,0-0.1-0.1-0.1-0.2s0-0.2,0.1-0.2c0.8,0,1.3-0.2,1.5-0.5c0.3-0.4,0.4-1,0.4-2v-5.3c0-1.3-0.2-2.3-0.7-2.9c-0.4-0.6-1.1-1-2.1-1
	c-0.6,0-1.2,0.1-1.8,0.4c-0.6,0.2-1.1,0.5-1.5,1v7.8c0,1,0.1,1.6,0.4,2c0.3,0.3,0.8,0.5,1.6,0.5c0.1,0,0.1,0.1,0.1,0.2
	s0,0.2-0.1,0.2c-0.6,0-1.1,0-1.5,0l-2.2,0l-2.2,0c-0.4,0-0.9,0-1.5,0c-0.1,0-0.1-0.1-0.1-0.2s0-0.2,0.1-0.2c0.8,0,1.3-0.2,1.5-0.5
	c0.3-0.4,0.4-1,0.4-2v-6.9c0-0.8-0.1-1.3-0.3-1.6c-0.2-0.4-0.4-0.5-0.8-0.5c-0.4,0-1,0.2-1.8,0.5h-0.1c-0.1,0-0.1-0.1-0.2-0.2
	c0-0.1,0-0.2,0-0.2l5.1-2.5c0.1,0,0.2-0.1,0.3-0.1c0.3,0,0.5,0.3,0.8,0.8c0.2,0.5,0.4,1.2,0.4,2.1c1.7-2,3.4-3,5.3-3
	c1.1,0,2.1,0.3,2.8,0.8s1.1,1.4,1.2,2.4c1.7-2.2,3.6-3.3,5.6-3.3c1.3,0,2.3,0.4,3,1.1c0.7,0.8,1.1,1.9,1.1,3.4v7c0,1,0.1,1.6,0.4,2
	C189.8,33.1,190.4,33.2,191.1,33.3L191.1,33.3z M205,31.3c0.1,0,0.1,0,0.1,0.1c0.1,0.1,0.1,0.2,0,0.2c-0.9,0.9-1.8,1.5-2.7,1.9
	s-1.9,0.6-3,0.6c-1.5,0-2.9-0.3-4-1c-1.1-0.7-2-1.5-2.6-2.6c-0.6-1.1-0.9-2.3-0.9-3.5c0-1.4,0.4-2.7,1.1-3.9c0.7-1.2,1.7-2.2,3-2.9
	c1.3-0.7,2.7-1.1,4.2-1.1c1.5,0,2.7,0.3,3.5,1c0.8,0.6,1.2,1.5,1.2,2.6c0,0.7-0.1,1.1-0.4,1.1h-2.2l-6.6,0.1c-0.1,0.5-0.1,1-0.1,1.5
	c0,2.1,0.5,3.8,1.5,5c1,1.2,2.4,1.8,4.1,1.8c0.6,0,1.2-0.1,1.9-0.3C203.8,31.9,204.4,31.7,205,31.3L205,31.3L205,31.3z M199,20
	c-0.7,0-1.4,0.3-1.9,0.9c-0.5,0.6-0.9,1.4-1.2,2.4l5.2-0.1C201,21,200.3,20,199,20L199,20z M210.4,21.3c0,0.7,0.2,1.3,0.7,1.8
	c0.5,0.5,1.2,1,2.2,1.6c0.9,0.5,1.6,1,2.1,1.3c0.5,0.3,0.9,0.7,1.2,1.3c0.4,0.5,0.6,1.2,0.6,2c0,0.8-0.2,1.6-0.6,2.3
	c-0.4,0.7-1,1.3-1.9,1.8c-0.8,0.4-1.8,0.7-3,0.7c-1.3,0-2.6-0.3-3.8-1c-0.1-0.2-0.2-0.3-0.2-0.4l-0.1-3.6c0-0.1,0.1-0.1,0.2-0.1
	c0.1,0,0.2,0,0.3,0c0.4,1.2,1,2.2,1.9,3.1c0.9,0.8,1.8,1.3,2.8,1.3c0.5,0,0.9-0.2,1.2-0.5c0.3-0.3,0.5-0.8,0.5-1.4
	c0-0.9-0.3-1.6-0.8-2.1c-0.5-0.5-1.3-1.1-2.3-1.6c-0.9-0.5-1.5-0.8-1.9-1.1c-0.4-0.3-0.8-0.7-1.2-1.2c-0.3-0.5-0.5-1.2-0.5-2
	c0-1.4,0.5-2.5,1.5-3.1c1-0.7,2.3-1,3.8-1c0.6,0,1.1,0,1.5,0.1c0.5,0.1,1,0.2,1.5,0.4c0.2,0.1,0.3,0.2,0.3,0.4c0,0.6,0,1.1,0,1.4
	l0,1.8c0,0.1-0.1,0.1-0.2,0.1s-0.2,0-0.2-0.1c0-0.5-0.2-1-0.6-1.5c-0.4-0.6-0.9-1-1.5-1.4c-0.6-0.4-1.2-0.6-1.9-0.6
	C211,19.9,210.5,20.4,210.4,21.3L210.4,21.3z"/>
<g>
	<path d="M15.9,37c2.7-0.2,2.7-0.8,2.1-1.3c-0.7-0.6-2.4-1.2-5.1-2.2c-4.6-1.6-10.3-3.6-11.3-5.9c-0.1-0.3-0.2-0.6-0.3-0.9
		c-0.1-0.2-0.2-0.5-0.2-0.8c0.9,2.3,4.5,3.9,12.2,6.6c3.7,1.3,9.2,3.2,4.1,4.2C16.9,36.8,16.3,36.9,15.9,37"/>
	<g>
		<path d="M4.8,11.7c1.3-1.1,3.2-1.9,7.9-3.4c2.2-0.7,2.8-0.8,2.8-1c-0.1,0-0.1-0.1-0.4-0.1c0,0,0,0,0.1,0c-0.1,0.1-0.2,0.1-1.8,0.5
			c-4.2,1.1-6.1,1.8-7.4,2.8C5.6,10.9,5.2,11.3,4.8,11.7"/>
		<path d="M2.3,15c1.2-1.8,4.1-3,10.1-5.1c3-1,7.6-2.6,2.7-2.7c0.5,0,1.7,0.1,1.1,0.6c-0.4,0.3-1.6,0.7-3.7,1.4
			c-4.5,1.5-8.1,2.8-9.3,4.4C2.9,14,2.6,14.5,2.3,15"/>
		<path d="M1.3,17.4C1.1,18,1,18.5,0.9,19c0.8-2.6,5.5-4.4,13.2-7.1c3.2-1.1,9.2-3.3,3.7-4.4l-0.2-0.1c-0.4-0.1-1.1-0.2-1.5-0.2
			c3.3,0.3,3,1.1,2.5,1.5c-0.8,0.7-2.7,1.4-5.3,2.3c-6.6,2.3-10.9,4-11.9,6.3C1.3,17.4,1.3,17.4,1.3,17.4"/>
		<path d="M0.5,22.1c0,0.5,0,0.9,0.1,1.3c0.1-2.9,4.6-5,14.2-8.4c6.7-2.4,10.2-4.3,7-6.1c-0.5-0.2-1.1-0.5-1.5-0.7
			c1.8,0.8,3.2,2-3.1,4.4c-4.2,1.6-8.5,2.8-12.5,4.9c-2.9,1.6-4,2.6-4.2,4C0.5,21.8,0.5,21.9,0.5,22.1"/>
		<path d="M1.3,26.8c0.1,0.3,0.2,0.6,0.3,0.9c-0.5-1.8,0.7-4.1,13.1-8.7c8.5-3.1,12.7-5.3,10.5-7.6c-0.4-0.3-0.9-0.8-1.3-1.1
			c2.5,2.2-1.3,4.2-9.4,7.1C7.2,20,0.5,22.9,1.1,26C1.1,26.3,1.2,26.5,1.3,26.8"/>
		<path d="M28.6,27.9c0.5-1.8-0.8-4-13.2-8.6C7.1,16.2,2.7,14,4.8,11.7c0.4-0.4,0.8-0.8,1.2-1.1c-2.4,2.2,1.6,4.3,9.8,7.3
			c6.9,2.5,13.9,5.5,13.3,8.5C29,26.9,28.8,27.4,28.6,27.9"/>
		<path d="M26.4,31.5c1.4-2.2-1.5-4.2-11.1-7.8c-10.6-4-14.1-6.4-13-8.7c0.3-0.5,0.6-1,0.9-1.4c-1.5,2.5,2.9,4.8,11.5,8.1
			c8.1,3.1,14.1,5.7,12.7,8.5C27.1,30.6,26.7,31.1,26.4,31.5"/>
		<path d="M23.3,34.4c2.6-2.1-1.4-4.1-9.1-6.8c-8.4-3-13.8-5.6-13.4-8.5C1,18.5,1.1,18,1.3,17.4c0,0,0-0.1,0-0.1
			c-0.6,2.9,4.9,5.6,13.4,8.7c8,2.9,12.2,5.1,9.9,7.3C24.2,33.7,23.8,34,23.3,34.4"/>
		<path d="M19.9,36.1l-0.3,0.1c1.7-0.6,3-1.6-1.4-3.6c-4.4-2-9.2-3.1-13.6-5.4c-3.3-1.8-3.9-3-4-3.8c0-0.4-0.1-0.9-0.1-1.3
			c0-0.2,0-0.3,0-0.5c0.2,2.8,4.8,4.9,14.2,8.3c7.3,2.6,9.2,4.3,6.4,5.7C20.7,35.8,20.3,36,19.9,36.1"/>
		<path d="M17.7,7.5c-0.6-0.1-1.2-0.2-1.7-0.2l0.1,0c0.4,0.1,1.1,0.1,1.5,0.2L17.7,7.5L17.7,7.5"/>
	</g>
</g>
</svg>
