<svg width="100" height="100" viewBox="0 0 100 100" xmlns="http://www.w3.org/2000/svg" xmlns:xlink="http://www.w3.org/1999/xlink"><title>teaser-video-icon</title><g transform="translate(-249 170)"><clipPath id="a" clip-rule="evenodd"><path d="M249-170h100v100H249v-100z" fill="#FFF"/></clipPath><g clip-path="url(#a)"><use xlink:href="#path0_fill" transform="translate(261 -153)"/><use xlink:href="#path1_fill" transform="translate(312 -105)"/></g></g><defs><path id="path0_fill" fill-rule="evenodd" d="M76 0H0v53h44.215c1.184-6.817 7.13-12 14.285-12 7.156 0 13.1 5.183 14.285 12H76V0zM37 58H0v8h37v-8zm6-33.5V21a1 1 0 0 0-1-1H30a1 1 0 0 0-1 1v10a1 1 0 0 0 1 1h12a1 1 0 0 0 1-1v-3.5l4 4v-11l-4 4z"/><path id="path1_fill" d="M6.356 8.644a.79.79 0 0 1 0 1.152.818.818 0 0 1-1.152 0 4.06 4.06 0 0 1 0-5.737l2.872-2.872a4.06 4.06 0 0 1 5.737 0 4.06 4.06 0 0 1 0 5.737l-1.209 1.209a5.604 5.604 0 0 0-.324-1.964l.38-.39a2.42 2.42 0 0 0 0-3.44 2.42 2.42 0 0 0-3.44 0L6.356 5.204a2.42 2.42 0 0 0 0 3.44zm2.288-3.44a.818.818 0 0 1 1.152 0 4.06 4.06 0 0 1 0 5.737l-2.872 2.872a4.06 4.06 0 0 1-5.737 0 4.06 4.06 0 0 1 0-5.737l1.209-1.209c-.008.665.097 1.33.324 1.972l-.38.381a2.42 2.42 0 0 0 0 3.44 2.42 2.42 0 0 0 3.44 0l2.864-2.864a2.42 2.42 0 0 0 0-3.44.79.79 0 0 1 0-1.152z"/></defs></svg>