<svg width="100" height="100" viewBox="0 0 100 100" xmlns="http://www.w3.org/2000/svg" xmlns:xlink="http://www.w3.org/1999/xlink"><title>teaser-icon</title><g transform="translate(-109 170)"><clipPath id="a" clip-rule="evenodd"><path d="M109-170h100v100H109v-100z" fill="#FFF"/></clipPath><g clip-path="url(#a)"><use xlink:href="#path0_fill" transform="translate(121 -125)"/><use xlink:href="#path1_fill" transform="translate(121 -79)"/><use xlink:href="#path2_fill" transform="translate(121 -163)"/><use xlink:href="#path3_fill" transform="translate(121 -111)"/><use xlink:href="#path4_fill" transform="translate(172 -105)"/></g></g><defs><path id="path0_fill" d="M0 0h51v8H0V0z"/><path id="path1_fill" d="M0 0h16v2H0V0z"/><path id="path2_fill" fill-rule="evenodd" d="M76 0H0v32h76V0zM35.614 14.667L40.727 8 53 24H23l8.182-10.667s3.832 5 6.136 8l2.182-1.6-3.886-5.066z"/><path id="path3_fill" fill-rule="evenodd" d="M72.923 12H76V8h-4.08a14.409 14.409 0 0 1 1.003 4zm-3.468-8H76V0H63.802a14.53 14.53 0 0 1 5.653 4zM53.198 0a14.53 14.53 0 0 0-5.653 4H0V0h53.198zM45.08 8a14.409 14.409 0 0 0-1.003 4H0V8h45.08zm26.84 11a14.409 14.409 0 0 0 1.003-4H76v4h-4.08zm-26.84 0H0v-4h44.077a14.409 14.409 0 0 0 1.003 4zm2.465 4a14.53 14.53 0 0 0 5.653 4H0v-4h47.545zm16.257 4a14.53 14.53 0 0 0 5.653-4H76v4H63.802z"/><path id="path4_fill" d="M6.356 8.644a.79.79 0 0 1 0 1.152.818.818 0 0 1-1.152 0 4.06 4.06 0 0 1 0-5.737l2.872-2.872a4.06 4.06 0 0 1 5.737 0 4.06 4.06 0 0 1 0 5.737l-1.209 1.209a5.604 5.604 0 0 0-.324-1.964l.38-.39a2.42 2.42 0 0 0 0-3.44 2.42 2.42 0 0 0-3.44 0L6.356 5.204a2.42 2.42 0 0 0 0 3.44zm2.288-3.44a.818.818 0 0 1 1.152 0 4.06 4.06 0 0 1 0 5.737l-2.872 2.872a4.06 4.06 0 0 1-5.737 0 4.06 4.06 0 0 1 0-5.737l1.209-1.209c-.008.665.097 1.33.324 1.972l-.38.381a2.42 2.42 0 0 0 0 3.44 2.42 2.42 0 0 0 3.44 0l2.864-2.864a2.42 2.42 0 0 0 0-3.44.79.79 0 0 1 0-1.152z"/></defs></svg>