<?xml version="1.0" encoding="UTF-8" standalone="no"?>
<svg width="512px" height="512px" viewBox="0 0 512 512" version="1.1" xmlns="http://www.w3.org/2000/svg" xmlns:xlink="http://www.w3.org/1999/xlink">
    <!-- Generator: Sketch 3.8.3 (29802) - http://www.bohemiancoding.com/sketch -->
    <title>Slice 1</title>
    <desc>Created with Sketch.</desc>
    <defs></defs>
    <g id="Page-1" stroke="none" stroke-width="1" fill="none" fill-rule="evenodd">
        <g id="teaser-embed" fill="#2F2F2F">
            <g id="Page-1">
                <g id="iframe-embed">
                    <path d="M256,0 C114.6151,3.7895613e-14 0,114.6151 0,256 C0,397.3849 114.6151,512 256,512 C397.3849,512 512,397.3849 512,256 C512,114.6151 397.3849,-4.2632564e-14 256,0 L256,0 Z M116,187.301172 L399.011719,187.301172 L399.011719,159 L116,159 L116,187.301172 L116,187.301172 Z M271.061348,357.07637 L370.115449,357.07637 L370.115449,328.775198 L271.061348,328.775198 L271.061348,357.07637 L271.061348,357.07637 Z M271.061348,300.484637 L398.416621,300.484637 L398.416621,272.183466 L271.061348,272.183466 L271.061348,300.484637 L271.061348,300.484637 Z M271.061348,243.892905 L398.416621,243.892905 L398.416621,215.591733 L271.061348,215.591733 L271.061348,243.892905 L271.061348,243.892905 Z M116,357.097592 L243.355273,357.097592 L243.355273,215.591733 L116,215.591733 L116,357.097592 L116,357.097592 Z" id="Combined-Shape"></path>
                </g>
            </g>
        </g>
    </g>
</svg>