<svg width="100" height="100" viewBox="0 0 100 100" version="1.1" xmlns="http://www.w3.org/2000/svg" xmlns:xlink="http://www.w3.org/1999/xlink">
<title>html-icon</title>
<desc>Created using Figma</desc>
<g id="Canvas" transform="translate(-529 170)">
<clipPath id="clip-0" clip-rule="evenodd">
<path d="M 529 -170L 629 -170L 629 -70L 529 -70L 529 -170Z" fill="#FFFFFF"/>
</clipPath>
<g id="html-icon" clip-path="url(#clip-0)">
<g id="twitter">
<g id="Vector">
<use xlink:href="#path0_fill" transform="translate(557 -137)"/>
</g>
</g>
</g>
</g>
<defs>
<path id="path0_fill" d="M 45 4.11765C 43.3437 4.83824 41.5583 5.31176 39.7084 5.53824C 41.6013 4.44706 43.064 2.71765 43.7524 0.638235C 41.967 1.66765 39.988 2.38824 37.9015 2.8C 36.2022 1.02941 33.8145 0 31.1042 0C 26.0492 0 21.9192 3.95294 21.9192 8.83235C 21.9192 9.53235 22.0053 10.2118 22.1558 10.85C 14.4981 10.4794 7.67925 6.95882 3.14054 1.62647C 2.34465 2.92353 1.89293 4.44706 1.89293 6.05294C 1.89293 9.12059 3.50621 11.8382 6.00143 13.3824C 4.47419 13.3824 3.05449 12.9706 1.80688 12.3529C 1.80688 12.3529 1.80688 12.3529 1.80688 12.4147C 1.80688 16.6971 4.99044 20.2794 9.2065 21.0824C 8.43212 21.2882 7.61472 21.3912 6.77581 21.3912C 6.19503 21.3912 5.61425 21.3294 5.05497 21.2265C 6.21654 24.7059 9.59369 27.3 13.6592 27.3618C 10.5186 29.75 6.5392 31.15 2.19407 31.15C 1.46272 31.15 0.731357 31.1088 -8.20561e-08 31.0265C 4.087 33.5382 8.94837 35 14.1539 35C 31.1042 35 40.4183 21.5353 40.4183 9.86176C 40.4183 9.47059 40.4183 9.1 40.3967 8.70882C 42.2036 7.47353 43.7524 5.90882 45 4.11765Z"/>
</defs>
</svg>
