<svg width="322" height="60" viewBox="0 0 322 60" xmlns="http://www.w3.org/2000/svg" xmlns:xlink="http://www.w3.org/1999/xlink"><title>Living Times</title><desc>Created using Figma</desc><g transform="translate(-1989 460)"><path fill="#E5E5E5" d="M1989-460h322v60h-322z"/><clipPath id="a" clip-rule="evenodd"><path d="M1460-512h1380v4750H1460V-512z" fill="#FFF"/></clipPath><g clip-path="url(#a)"><path d="M1460-512h1380v4750H1460V-512z" fill="#FFF"/><clipPath id="b" clip-rule="evenodd"><path d="M1560-498h1180v187H1560v-187z" fill="#FFF"/></clipPath><g clip-path="url(#b)"><path d="M1560-498h1180v187H1560v-187z" fill="#FFF"/><use xlink:href="#c" transform="translate(1987 -476)" fill-opacity=".87"/></g></g></g><defs><path id="c" d="M13.874 52.645c0 1.092.084 1.89.252 2.394.168.46.483.77.945.94.51.17 1.31.25 2.4.25h2.14c3.28 0 6.11-.86 8.51-2.59 2.4-1.77 3.99-4.14 4.79-7.12 0-.09.09-.13.26-.13.09 0 .17.04.25.12.13.04.19.08.19.12-.38 4.15-.57 7.62-.57 10.39 0 .33-.08.59-.25.75-.12.13-.36.19-.69.19H2.35c-.086 0-.128-.13-.128-.38s.04-.38.122-.38c1.344 0 2.31-.11 2.898-.32.63-.21 1.05-.61 1.26-1.2.26-.63.38-1.57.38-2.83V23.72c0-1.26-.12-2.182-.37-2.77-.21-.59-.63-.987-1.26-1.197-.63-.253-1.59-.38-2.9-.38-.08 0-.12-.125-.12-.377s.04-.377.13-.377l3.21.06c1.93.08 3.53.12 4.79.12 1.26 0 2.858-.04 4.79-.13l3.214-.07c.127 0 .19.12.19.38s-.063.38-.19.38c-1.3 0-2.27.12-2.9.38-.63.21-1.05.63-1.26 1.26-.21.58-.314 1.51-.314 2.77v28.86zM37.242 58c-.126 0-.19-.126-.19-.378s.064-.378.19-.378c1.302 0 2.184-.294 2.646-.882.462-.63.693-1.785.693-3.465V41.62c0-1.428-.14-2.457-.44-3.087-.29-.63-.77-.945-1.45-.945-.54 0-1.32.23-2.33.693h-.06c-.16 0-.29-.1-.37-.31-.08-.25-.06-.4.06-.44l9.52-4.41.19-.06c.21 0 .42.11.63.32.21.21.32.4.32.57v1.39c-.08 1.68-.12 3.74-.12 6.18v11.4c0 1.68.23 2.84.69 3.47.51.59 1.41.88 2.71.88.13 0 .19.13.19.38s-.06.38-.19.38c-1.09 0-1.95-.02-2.58-.06l-3.78-.06-3.71.07c-.63.05-1.49.07-2.58.07zm6.048-31.185c-1.218 0-2.163-.336-2.835-1.008-.672-.672-1.008-1.617-1.008-2.835 0-1.092.336-1.953 1.008-2.583.714-.68 1.66-1.01 2.835-1.01 1.176 0 2.08.31 2.71.94.63.63.944 1.51.944 2.64 0 1.22-.315 2.16-.945 2.83-.63.67-1.54 1.01-2.71 1.01zm36.647 6.867c.084 0 .126.126.126.378s-.042.378-.126.378c-1.218 0-2.31.462-3.276 1.386-.92.924-1.8 2.352-2.64 4.284L66.27 58c-.04.21-.275.315-.695.315-.336 0-.567-.105-.693-.315l-9.64-19.09c-.88-1.847-1.66-3.044-2.33-3.59-.673-.588-1.49-.882-2.458-.882-.126 0-.19-.126-.19-.378s.064-.378.19-.378c.756 0 1.386.02 1.89.063l4.22.063 4.852-.063c.714-.042 1.7-.063 2.96-.063.127 0 .19.126.19.378s-.063.378-.19.378c-2.435 0-3.653.483-3.653 1.45 0 .25.107.587.317 1.007l7.056 13.23 4.158-10.08c.34-.882.51-1.638.51-2.268 0-1.05-.357-1.87-1.07-2.457-.715-.588-1.702-.882-2.962-.882-.084 0-.126-.126-.126-.378s.04-.378.127-.378c1.133 0 1.994.02 2.582.063l3.78.063 2.52-.063c.503-.042 1.28-.063 2.33-.063zM81.54 58c-.127 0-.19-.126-.19-.378s.063-.378.19-.378c1.3 0 2.183-.294 2.645-.882.462-.63.693-1.785.693-3.465V41.62c0-1.428-.147-2.457-.44-3.087-.295-.63-.778-.945-1.45-.945-.546 0-1.323.23-2.33.693h-.064c-.168 0-.294-.1-.378-.31-.084-.25-.063-.4.063-.44l9.51-4.41.19-.06c.21 0 .42.11.63.32.21.21.31.4.31.57v1.39c-.09 1.68-.13 3.74-.13 6.18v11.4c0 1.68.23 2.84.69 3.47.5.59 1.4.88 2.71.88.12 0 .18.13.18.38s-.06.38-.19.38c-1.1 0-1.96-.02-2.59-.06l-3.78-.06-3.72.07c-.63.05-1.49.07-2.58.07zm6.047-31.185c-1.218 0-2.163-.336-2.835-1.008-.672-.672-1.008-1.617-1.008-2.835 0-1.092.336-1.953 1.008-2.583.714-.68 1.66-1.01 2.835-1.01 1.176 0 2.08.31 2.71.94.63.63.944 1.51.944 2.64 0 1.22-.31 2.16-.94 2.83-.63.67-1.53 1.01-2.71 1.01zm40.112 30.43c.12 0 .18.125.18.377s-.07.378-.19.378c-1.09 0-1.95-.02-2.58-.063l-3.78-.063-3.66.063c-.67.042-1.56.063-2.65.063-.13 0-.19-.126-.19-.378s.06-.378.19-.378c1.3 0 2.18-.294 2.64-.882.46-.63.69-1.785.69-3.465v-9.072c0-2.268-.42-3.948-1.26-5.04-.8-1.092-2.08-1.638-3.85-1.638-1.01 0-2.06.21-3.15.63-1.05.42-1.98.987-2.77 1.7v13.42c0 1.68.23 2.835.69 3.465.5.588 1.4.882 2.71.882.12 0 .19.126.19.378s-.07.378-.19.378c-1.09 0-1.96-.02-2.59-.063l-3.78-.063-3.72.063c-.63.042-1.49.063-2.58.063-.13 0-.19-.126-.19-.378s.06-.378.19-.378c1.3 0 2.18-.294 2.64-.882.46-.63.69-1.785.69-3.465V41.053c0-1.302-.17-2.247-.51-2.835-.29-.63-.775-.945-1.45-.945-.71 0-1.72.294-3.02.882h-.12c-.127 0-.23-.105-.316-.315-.045-.21-.02-.336.06-.378l8.76-4.284c.25-.084.4-.126.44-.126.46 0 .9.462 1.32 1.386.42.882.67 2.1.76 3.654 2.89-3.444 6.09-5.166 9.57-5.166 2.27 0 4.05.735 5.35 2.205 1.343 1.43 2.015 3.32 2.015 5.67v12.1c0 1.68.23 2.84.692 3.47.506.59 1.41.88 2.71.88zm17.22-2.017c2.48.42 4.45.84 5.92 1.26 1.47.42 2.73 1.134 3.78 2.142 1.09 1.008 1.64 2.436 1.64 4.284 0 2.268-.74 4.39-2.21 6.363-1.43 1.974-3.38 3.55-5.86 4.725-2.44 1.176-5.08 1.764-7.94 1.764-3.11 0-5.65-.672-7.63-2.016-1.98-1.344-2.96-3.087-2.96-5.23 0-1.427.46-2.897 1.38-4.41.92-1.51 2.64-3.17 5.16-4.976-1.26-.378-2.25-.924-2.96-1.638-.68-.714-1.01-1.68-1.01-2.898 0-1.05.4-2.12 1.19-3.213.84-1.134 2.12-2.184 3.84-3.15-1.85-.63-3.28-1.596-4.29-2.898s-1.51-2.71-1.51-4.22c0-1.68.55-3.11 1.64-4.285 1.09-1.176 2.48-2.058 4.16-2.646 1.68-.63 3.36-.945 5.04-.945 2.81 0 5.14.7 6.99 2.08 1.13-.75 2.25-1.32 3.34-1.7 1.09-.38 2.27-.56 3.53-.56.33 0 .5.59.5 1.77 0 .59-.09 1.24-.25 1.96-.17.72-.32 1.01-.44.88-1.77-.71-3.34-1.07-4.73-1.07h-.51c1.09 1.31 1.64 2.78 1.64 4.41 0 1.6-.55 3.01-1.64 4.22-1.05 1.18-2.42 2.08-4.1 2.71-1.68.63-3.4.95-5.17.95-1.14 0-2.21-.12-3.22-.38-.84.68-1.26 1.54-1.26 2.59 0 .93.34 1.64 1.01 2.15.715.51 1.576.89 2.584 1.14 1.004.26 2.432.55 4.28.89zm-4.66-20.79c-1.77 0-2.65 1.66-2.65 4.977 0 2.184.52 4.116 1.57 5.796 1.05 1.68 2.39 2.52 4.03 2.52.79 0 1.49-.42 2.08-1.26.63-.84.94-2.16.94-3.96 0-2.27-.59-4.18-1.77-5.73-1.18-1.55-2.59-2.33-4.22-2.33zm3.33 39.312c2.18 0 3.95-.65 5.29-1.953 1.38-1.26 2.08-2.96 2.08-5.103 0-1.596-.47-2.835-1.39-3.717-.89-.84-1.98-1.45-3.28-1.827-1.26-.336-3.01-.672-5.23-1.008l-3.4-.567c-1.18 1.386-1.77 3.36-1.77 5.922 0 2.646.71 4.683 2.14 6.11 1.42 1.43 3.27 2.143 5.54 2.143zm42.37-53.676c-5 0-8.59 3.255-10.78 9.765-.04.12-.17.18-.38.18-.21-.04-.32-.13-.32-.25.17-1.68.35-3.85.56-6.49.21-2.69.31-4.71.31-6.05 0-.21.1-.32.31-.32.25 0 .37.1.37.31 0 .92 1.2 1.38 3.59 1.38 3.61.13 7.83.19 12.66.19 2.48 0 5.11-.04 7.88-.13l4.28-.06c1.59 0 2.75-.11 3.46-.32.75-.21 1.24-.63 1.45-1.26.04-.17.16-.25.37-.25.25 0 .38.08.38.25-.13 1.26-.278 3.27-.44 6.05-.13 2.77-.19 5-.19 6.68 0 .12-.11.19-.32.19-.21 0-.338-.07-.38-.19-.63-3.24-1.81-5.65-3.53-7.25-1.725-1.64-3.846-2.46-6.366-2.46-1.22 0-2.04.27-2.46.82-.38.5-.57 1.49-.57 2.96v29.04c0 1.3.13 2.24.38 2.83.25.58.737.98 1.45 1.19.715.21 1.85.31 3.4.31.13 0 .19.12.19.38s-.06.37-.19.37c-1.51 0-2.71-.02-3.59-.06l-5.23-.07-5.1.07c-.88.04-2.1.06-3.65.06-.123 0-.19-.13-.19-.38s.067-.38.19-.38c1.51 0 2.63-.108 3.34-.318.76-.21 1.26-.61 1.51-1.2.3-.63.44-1.57.44-2.83V23.72c0-1.427-.19-2.393-.56-2.897-.38-.505-1.15-.757-2.33-.757zM214.92 58c-.126 0-.19-.126-.19-.378s.064-.378.19-.378c1.3 0 2.184-.294 2.646-.882.46-.63.692-1.785.692-3.465V41.62c0-1.428-.14-2.457-.44-3.087-.29-.63-.77-.945-1.45-.945-.54 0-1.32.23-2.33.693h-.06c-.17 0-.29-.1-.38-.31-.08-.25-.06-.4.068-.44l9.513-4.41.19-.06c.21 0 .42.11.63.32.21.21.31.4.31.57v1.39c-.09 1.68-.13 3.74-.13 6.18v11.4c0 1.68.23 2.84.69 3.47.5.59 1.4.88 2.71.88.12 0 .18.13.18.38s-.07.38-.19.38c-1.09 0-1.96-.02-2.59-.06l-3.78-.06-3.72.07c-.63.05-1.49.07-2.59.07zm6.048-31.185c-1.217 0-2.162-.336-2.834-1.008-.672-.672-1.008-1.617-1.008-2.835 0-1.092.336-1.953 1.008-2.583.714-.68 1.66-1.01 2.835-1.01s2.08.31 2.71.94c.63.63.94 1.51.94 2.64 0 1.22-.32 2.16-.95 2.83-.63.67-1.54 1.01-2.71 1.01zm55.863 30.43c.17 0 .26.125.26.377s-.08.378-.25.378c-1.09 0-1.95-.02-2.58-.063l-3.78-.063-3.66.063c-.67.042-1.56.063-2.65.063-.12 0-.19-.126-.19-.378s.07-.378.19-.378c1.3 0 2.19-.294 2.65-.882.51-.63.76-1.785.76-3.465v-9.072c0-2.268-.4-3.948-1.19-5.04-.75-1.092-1.93-1.638-3.53-1.638-1.09 0-2.16.23-3.21.693-1.05.462-1.95 1.092-2.71 1.89v13.168c0 1.68.23 2.834.7 3.464.51.588 1.41.882 2.71.882.17 0 .25.126.25.378s-.08.378-.25.378c-1.09 0-1.95-.02-2.58-.063l-3.78-.063-3.65.063c-.67.042-1.55.063-2.64.063-.13 0-.19-.126-.19-.378s.06-.378.19-.378c1.3 0 2.18-.294 2.64-.882.5-.63.76-1.785.76-3.465v-9.072c0-2.268-.4-3.948-1.2-5.04-.76-1.092-1.93-1.638-3.53-1.638-1.01 0-2.012.21-3.02.63-.97.378-1.83.924-2.582 1.638v13.482c0 1.68.23 2.835.69 3.465.504.588 1.41.882 2.71.882.125 0 .19.126.19.378s-.064.378-.19.378c-1.09 0-1.95-.02-2.58-.063l-3.78-.063-3.72.063c-.63.042-1.49.063-2.58.063-.13 0-.19-.126-.19-.378s.06-.378.19-.378c1.3 0 2.18-.294 2.64-.882.46-.63.69-1.785.69-3.465V41.053c0-1.302-.165-2.247-.5-2.835-.294-.63-.777-.945-1.45-.945-.713 0-1.72.294-3.023.882h-.127c-.13 0-.23-.105-.32-.315-.04-.21-.02-.336.066-.378l8.754-4.284c.258-.084.4-.126.44-.126.47 0 .91.462 1.33 1.386.42.882.68 2.08.76 3.59 2.86-3.4 5.926-5.102 9.2-5.102 1.977 0 3.55.483 4.728 1.45 1.18.965 1.89 2.35 2.15 4.157 2.89-3.738 6.11-5.607 9.64-5.607 2.26 0 3.99.65 5.16 1.953 1.22 1.3 1.824 3.27 1.824 5.92v12.09c0 1.68.23 2.83.695 3.46.502.59 1.405.88 2.71.88zm25.6-3.403c.09 0 .17.084.25.252.13.168.15.294.07.378-1.55 1.512-3.13 2.604-4.72 3.276-1.59.672-3.33 1.008-5.22 1.008-2.64 0-4.93-.546-6.86-1.638-1.93-1.134-3.4-2.625-4.41-4.473-1.01-1.89-1.51-3.906-1.51-6.048 0-2.436.63-4.683 1.89-6.74 1.26-2.1 2.99-3.74 5.17-4.915 2.19-1.218 4.62-1.827 7.31-1.827 2.61 0 4.6.567 5.99 1.7 1.39 1.093 2.08 2.605 2.08 4.537 0 1.218-.23 1.827-.69 1.827h-3.85l-11.34.12c-.13.8-.19 1.68-.19 2.64 0 3.61.84 6.47 2.52 8.57 1.72 2.1 4.08 3.15 7.06 3.15 1.05 0 2.14-.15 3.28-.45 1.14-.3 2.17-.74 3.09-1.33l.13-.07zm-10.39-19.467c-1.26 0-2.35.504-3.27 1.512-.92 1.008-1.59 2.394-2.01 4.158l8.95-.19c-.12-3.653-1.34-5.48-3.65-5.48zm19.72 2.33c0 1.22.42 2.27 1.26 3.15.88.883 2.14 1.807 3.78 2.773 1.6.924 2.77 1.66 3.53 2.205.8.504 1.52 1.24 2.15 2.205.63.924.95 2.058.95 3.402 0 1.428-.35 2.772-1.07 4.032-.71 1.26-1.78 2.29-3.21 3.087-1.43.75-3.13 1.13-5.1 1.13-2.31 0-4.49-.57-6.55-1.7-.25-.26-.38-.51-.38-.76l-.13-6.23c0-.13.11-.19.32-.19.26-.05.4-.02.44.06.68 2.1 1.79 3.88 3.34 5.35 1.56 1.47 3.13 2.2 4.73 2.2.88 0 1.58-.28 2.08-.82.55-.55.82-1.35.82-2.4 0-1.56-.44-2.78-1.32-3.66-.88-.93-2.18-1.87-3.9-2.84-1.47-.8-2.58-1.45-3.34-1.95-.75-.5-1.43-1.22-2.01-2.14-.59-.93-.88-2.06-.88-3.4 0-2.48.88-4.29 2.65-5.42 1.77-1.18 3.93-1.77 6.49-1.77.97 0 1.83.06 2.59.19.8.12 1.68.37 2.65.75.38.12.57.35.57.69 0 1.05-.02 1.87-.063 2.45l-.064 3.15c0 .12-.126.19-.38.19s-.38-.07-.38-.19c0-.8-.34-1.66-1.01-2.59-.67-.97-1.554-1.79-2.646-2.46-1.05-.67-2.14-1.01-3.278-1.01-1.72 0-2.586.82-2.586 2.46z"/></defs></svg>